<?xml version="1.0" standalone="no"?>
 <!DOCTYPE svg PUBLIC "-//W3C//DTD SVG 1.1//EN" 
 "http://www.w3.org/Graphics/SVG/1.1/DTD/svg11.dtd"> 
<svg
  xmlns:svg="http://www.w3.org/2000/svg"
  xmlns="http://www.w3.org/2000/svg"
  xmlns:xlink="http://www.w3.org/1999/xlink"
  version="1.1"
  width="86.5632mm" height="45.5930mm" viewBox="0.0000 0.0000 86.5632 45.5930">
<title>SVG Image created as bus_connector.kicad_pcb-FRONT.svg date 2025/11/21 00:23:17 </title>
  <desc>Image generated by PCBNEW </desc>
<g style="fill:#000000; fill-opacity:1.0000;stroke:#000000; stroke-opacity:1.0000;
stroke-linecap:round; stroke-linejoin:round;"
 transform="translate(0 0) scale(1 1)">
</g>
<g style="fill:none; 
stroke:#C872AB; stroke-width:0.1500; stroke-opacity:1; 
stroke-linecap:round; stroke-linejoin:round;">
<path d="M-136.6352 -77.3285
L-28.6352 -77.3285
L-28.6352 -45.3285
L-136.6352 -45.3285
L-136.6352 -77.3285
" />
</g>
<g style="fill:none; 
stroke:#C872AB; stroke-width:0.1500; stroke-opacity:1; 
stroke-linecap:round; stroke-linejoin:round;">
<path d="M-93.2117 -68.9267
L-26.6352 -68.9267
L-26.6352 -43.3285
L-93.2117 -43.3285
L-93.2117 -68.9267
" />
</g>
<g style="fill:none; 
stroke:#C872AB; stroke-width:0.1500; stroke-opacity:1; 
stroke-linecap:round; stroke-linejoin:round;">
<path d="M-91.2117 -66.9267
L-28.6352 -66.9267
L-28.6352 -45.3285
L-91.2117 -45.3285
L-91.2117 -66.9267
" />
</g>
<g style="fill:none; 
stroke:#C872AB; stroke-width:0.1500; stroke-opacity:1; 
stroke-linecap:round; stroke-linejoin:round;">
<path d="M-43.2117 -66.9267
L-43.2117 -68.9267
" />
</g>
<g style="fill:none; 
stroke:#C872AB; stroke-width:0.1500; stroke-opacity:1; 
stroke-linecap:round; stroke-linejoin:round;">
<text x="-68.2117" y="-67.2767"
textLength="1.4281" font-size="1.7333" lengthAdjust="spacingAndGlyphs"
text-anchor="start" opacity="0" stroke-opacity="0">1</text>
<g class="stroked-text"><desc>1</desc>
<path d="M-67.1226 -67.3331
L-67.8654 -67.3331
" />
<path d="M-67.4940 -67.3331
L-67.4940 -68.6331
" />
<path d="M-67.4940 -68.6331
L-67.6178 -68.4474
" />
<path d="M-67.6178 -68.4474
L-67.7416 -68.3236
" />
<path d="M-67.7416 -68.3236
L-67.8654 -68.2617
" />
</g></g>
<g style="fill:none; 
stroke:#C872AB; stroke-width:0.1500; stroke-opacity:1; 
stroke-linecap:round; stroke-linejoin:round;">
<path d="M-43.2117 -45.3285
L-43.2117 -43.3285
" />
</g>
<g style="fill:none; 
stroke:#C872AB; stroke-width:0.1500; stroke-opacity:1; 
stroke-linecap:round; stroke-linejoin:round;">
<text x="-68.2117" y="-43.6785"
textLength="1.4281" font-size="1.7333" lengthAdjust="spacingAndGlyphs"
text-anchor="start" opacity="0" stroke-opacity="0">1</text>
<g class="stroked-text"><desc>1</desc>
<path d="M-67.1226 -43.7349
L-67.8654 -43.7349
" />
<path d="M-67.4940 -43.7349
L-67.4940 -45.0349
" />
<path d="M-67.4940 -45.0349
L-67.6178 -44.8492
" />
<path d="M-67.6178 -44.8492
L-67.7416 -44.7254
" />
<path d="M-67.7416 -44.7254
L-67.8654 -44.6635
" />
</g></g>
<g style="fill:none; 
stroke:#C872AB; stroke-width:0.1500; stroke-opacity:1; 
stroke-linecap:round; stroke-linejoin:round;">
<path d="M-93.2117 -18.9267
L-91.2117 -18.9267
" />
</g>
<g style="fill:none; 
stroke:#C872AB; stroke-width:0.1500; stroke-opacity:1; 
stroke-linecap:round; stroke-linejoin:round;">
<text x="-92.2117" y="-43.2767"
textLength="1.3043" font-size="1.7333" lengthAdjust="spacingAndGlyphs"
text-anchor="middle" opacity="0" stroke-opacity="0">A</text>
<g class="stroked-text"><desc>A</desc>
<path d="M-92.5213 -43.7046
L-91.9022 -43.7046
" />
<path d="M-92.6451 -43.3331
L-92.2118 -44.6331
" />
<path d="M-92.2118 -44.6331
L-91.7784 -43.3331
" />
</g></g>
<g style="fill:none; 
stroke:#C872AB; stroke-width:0.1500; stroke-opacity:1; 
stroke-linecap:round; stroke-linejoin:round;">
<path d="M-26.6352 -18.9267
L-28.6352 -18.9267
" />
</g>
<g style="fill:none; 
stroke:#C872AB; stroke-width:0.1500; stroke-opacity:1; 
stroke-linecap:round; stroke-linejoin:round;">
<text x="-27.6352" y="-43.2767"
textLength="1.3043" font-size="1.7333" lengthAdjust="spacingAndGlyphs"
text-anchor="middle" opacity="0" stroke-opacity="0">A</text>
<g class="stroked-text"><desc>A</desc>
<path d="M-27.9448 -43.7046
L-27.3257 -43.7046
" />
<path d="M-28.0686 -43.3331
L-27.6353 -44.6331
" />
<path d="M-27.6353 -44.6331
L-27.2019 -43.3331
" />
</g></g>
<g style="fill:none; 
stroke:#C872AB; stroke-width:0.1500; stroke-opacity:1; 
stroke-linecap:round; stroke-linejoin:round;">
<text x="-113.6352" y="-49.4785"
textLength="22.1500" font-size="2.0000" lengthAdjust="spacingAndGlyphs"
text-anchor="start" opacity="0" stroke-opacity="0">Date: 2025-11-16</text>
<g class="stroked-text"><desc>Date: 2025-11-16</desc>
<path d="M-113.1794 -49.5424
L-113.1794 -51.0424
" />
<path d="M-113.1794 -51.0424
L-112.8223 -51.0424
" />
<path d="M-112.8223 -51.0424
L-112.6080 -50.9709
" />
<path d="M-112.6080 -50.9709
L-112.4651 -50.8281
" />
<path d="M-112.4651 -50.8281
L-112.3937 -50.6852
" />
<path d="M-112.3937 -50.6852
L-112.3223 -50.3995
" />
<path d="M-112.3223 -50.3995
L-112.3223 -50.1852
" />
<path d="M-112.3223 -50.1852
L-112.3937 -49.8995
" />
<path d="M-112.3937 -49.8995
L-112.4651 -49.7567
" />
<path d="M-112.4651 -49.7567
L-112.6080 -49.6138
" />
<path d="M-112.6080 -49.6138
L-112.8223 -49.5424
" />
<path d="M-112.8223 -49.5424
L-113.1794 -49.5424
" />
<path d="M-111.0366 -49.5424
L-111.0366 -50.3281
" />
<path d="M-111.0366 -50.3281
L-111.1080 -50.4709
" />
<path d="M-111.1080 -50.4709
L-111.2509 -50.5424
" />
<path d="M-111.2509 -50.5424
L-111.5366 -50.5424
" />
<path d="M-111.5366 -50.5424
L-111.6794 -50.4709
" />
<path d="M-111.0366 -49.6138
L-111.1794 -49.5424
" />
<path d="M-111.1794 -49.5424
L-111.5366 -49.5424
" />
<path d="M-111.5366 -49.5424
L-111.6794 -49.6138
" />
<path d="M-111.6794 -49.6138
L-111.7509 -49.7567
" />
<path d="M-111.7509 -49.7567
L-111.7509 -49.8995
" />
<path d="M-111.7509 -49.8995
L-111.6794 -50.0424
" />
<path d="M-111.6794 -50.0424
L-111.5366 -50.1138
" />
<path d="M-111.5366 -50.1138
L-111.1794 -50.1138
" />
<path d="M-111.1794 -50.1138
L-111.0366 -50.1852
" />
<path d="M-110.5366 -50.5424
L-109.9651 -50.5424
" />
<path d="M-110.3223 -51.0424
L-110.3223 -49.7567
" />
<path d="M-110.3223 -49.7567
L-110.2509 -49.6138
" />
<path d="M-110.2509 -49.6138
L-110.1080 -49.5424
" />
<path d="M-110.1080 -49.5424
L-109.9651 -49.5424
" />
<path d="M-108.8937 -49.6138
L-109.0366 -49.5424
" />
<path d="M-109.0366 -49.5424
L-109.3223 -49.5424
" />
<path d="M-109.3223 -49.5424
L-109.4651 -49.6138
" />
<path d="M-109.4651 -49.6138
L-109.5366 -49.7567
" />
<path d="M-109.5366 -49.7567
L-109.5366 -50.3281
" />
<path d="M-109.5366 -50.3281
L-109.4651 -50.4709
" />
<path d="M-109.4651 -50.4709
L-109.3223 -50.5424
" />
<path d="M-109.3223 -50.5424
L-109.0366 -50.5424
" />
<path d="M-109.0366 -50.5424
L-108.8937 -50.4709
" />
<path d="M-108.8937 -50.4709
L-108.8223 -50.3281
" />
<path d="M-108.8223 -50.3281
L-108.8223 -50.1852
" />
<path d="M-108.8223 -50.1852
L-109.5366 -50.0424
" />
<path d="M-108.1794 -49.6852
L-108.1080 -49.6138
" />
<path d="M-108.1080 -49.6138
L-108.1794 -49.5424
" />
<path d="M-108.1794 -49.5424
L-108.2509 -49.6138
" />
<path d="M-108.2509 -49.6138
L-108.1794 -49.6852
" />
<path d="M-108.1794 -49.6852
L-108.1794 -49.5424
" />
<path d="M-108.1794 -50.4709
L-108.1080 -50.3995
" />
<path d="M-108.1080 -50.3995
L-108.1794 -50.3281
" />
<path d="M-108.1794 -50.3281
L-108.2509 -50.3995
" />
<path d="M-108.2509 -50.3995
L-108.1794 -50.4709
" />
<path d="M-108.1794 -50.4709
L-108.1794 -50.3281
" />
<path d="M-106.3937 -50.8995
L-106.3223 -50.9709
" />
<path d="M-106.3223 -50.9709
L-106.1794 -51.0424
" />
<path d="M-106.1794 -51.0424
L-105.8223 -51.0424
" />
<path d="M-105.8223 -51.0424
L-105.6794 -50.9709
" />
<path d="M-105.6794 -50.9709
L-105.6080 -50.8995
" />
<path d="M-105.6080 -50.8995
L-105.5366 -50.7567
" />
<path d="M-105.5366 -50.7567
L-105.5366 -50.6138
" />
<path d="M-105.5366 -50.6138
L-105.6080 -50.3995
" />
<path d="M-105.6080 -50.3995
L-106.4651 -49.5424
" />
<path d="M-106.4651 -49.5424
L-105.5366 -49.5424
" />
<path d="M-104.6080 -51.0424
L-104.4651 -51.0424
" />
<path d="M-104.4651 -51.0424
L-104.3223 -50.9709
" />
<path d="M-104.3223 -50.9709
L-104.2509 -50.8995
" />
<path d="M-104.2509 -50.8995
L-104.1794 -50.7567
" />
<path d="M-104.1794 -50.7567
L-104.1080 -50.4709
" />
<path d="M-104.1080 -50.4709
L-104.1080 -50.1138
" />
<path d="M-104.1080 -50.1138
L-104.1794 -49.8281
" />
<path d="M-104.1794 -49.8281
L-104.2509 -49.6852
" />
<path d="M-104.2509 -49.6852
L-104.3223 -49.6138
" />
<path d="M-104.3223 -49.6138
L-104.4651 -49.5424
" />
<path d="M-104.4651 -49.5424
L-104.6080 -49.5424
" />
<path d="M-104.6080 -49.5424
L-104.7509 -49.6138
" />
<path d="M-104.7509 -49.6138
L-104.8223 -49.6852
" />
<path d="M-104.8223 -49.6852
L-104.8937 -49.8281
" />
<path d="M-104.8937 -49.8281
L-104.9651 -50.1138
" />
<path d="M-104.9651 -50.1138
L-104.9651 -50.4709
" />
<path d="M-104.9651 -50.4709
L-104.8937 -50.7567
" />
<path d="M-104.8937 -50.7567
L-104.8223 -50.8995
" />
<path d="M-104.8223 -50.8995
L-104.7509 -50.9709
" />
<path d="M-104.7509 -50.9709
L-104.6080 -51.0424
" />
<path d="M-103.5366 -50.8995
L-103.4651 -50.9709
" />
<path d="M-103.4651 -50.9709
L-103.3223 -51.0424
" />
<path d="M-103.3223 -51.0424
L-102.9651 -51.0424
" />
<path d="M-102.9651 -51.0424
L-102.8223 -50.9709
" />
<path d="M-102.8223 -50.9709
L-102.7509 -50.8995
" />
<path d="M-102.7509 -50.8995
L-102.6794 -50.7567
" />
<path d="M-102.6794 -50.7567
L-102.6794 -50.6138
" />
<path d="M-102.6794 -50.6138
L-102.7509 -50.3995
" />
<path d="M-102.7509 -50.3995
L-103.6080 -49.5424
" />
<path d="M-103.6080 -49.5424
L-102.6794 -49.5424
" />
<path d="M-101.3223 -51.0424
L-102.0366 -51.0424
" />
<path d="M-102.0366 -51.0424
L-102.1080 -50.3281
" />
<path d="M-102.1080 -50.3281
L-102.0366 -50.3995
" />
<path d="M-102.0366 -50.3995
L-101.8937 -50.4709
" />
<path d="M-101.8937 -50.4709
L-101.5366 -50.4709
" />
<path d="M-101.5366 -50.4709
L-101.3937 -50.3995
" />
<path d="M-101.3937 -50.3995
L-101.3223 -50.3281
" />
<path d="M-101.3223 -50.3281
L-101.2509 -50.1852
" />
<path d="M-101.2509 -50.1852
L-101.2509 -49.8281
" />
<path d="M-101.2509 -49.8281
L-101.3223 -49.6852
" />
<path d="M-101.3223 -49.6852
L-101.3937 -49.6138
" />
<path d="M-101.3937 -49.6138
L-101.5366 -49.5424
" />
<path d="M-101.5366 -49.5424
L-101.8937 -49.5424
" />
<path d="M-101.8937 -49.5424
L-102.0366 -49.6138
" />
<path d="M-102.0366 -49.6138
L-102.1080 -49.6852
" />
<path d="M-100.6080 -50.1138
L-99.4651 -50.1138
" />
<path d="M-97.9651 -49.5424
L-98.8223 -49.5424
" />
<path d="M-98.3937 -49.5424
L-98.3937 -51.0424
" />
<path d="M-98.3937 -51.0424
L-98.5366 -50.8281
" />
<path d="M-98.5366 -50.8281
L-98.6794 -50.6852
" />
<path d="M-98.6794 -50.6852
L-98.8223 -50.6138
" />
<path d="M-96.5366 -49.5424
L-97.3937 -49.5424
" />
<path d="M-96.9651 -49.5424
L-96.9651 -51.0424
" />
<path d="M-96.9651 -51.0424
L-97.1080 -50.8281
" />
<path d="M-97.1080 -50.8281
L-97.2509 -50.6852
" />
<path d="M-97.2509 -50.6852
L-97.3937 -50.6138
" />
<path d="M-95.8937 -50.1138
L-94.7509 -50.1138
" />
<path d="M-93.2509 -49.5424
L-94.1080 -49.5424
" />
<path d="M-93.6794 -49.5424
L-93.6794 -51.0424
" />
<path d="M-93.6794 -51.0424
L-93.8223 -50.8281
" />
<path d="M-93.8223 -50.8281
L-93.9651 -50.6852
" />
<path d="M-93.9651 -50.6852
L-94.1080 -50.6138
" />
<path d="M-91.9651 -51.0424
L-92.2509 -51.0424
" />
<path d="M-92.2509 -51.0424
L-92.3937 -50.9709
" />
<path d="M-92.3937 -50.9709
L-92.4651 -50.8995
" />
<path d="M-92.4651 -50.8995
L-92.6080 -50.6852
" />
<path d="M-92.6080 -50.6852
L-92.6794 -50.3995
" />
<path d="M-92.6794 -50.3995
L-92.6794 -49.8281
" />
<path d="M-92.6794 -49.8281
L-92.6080 -49.6852
" />
<path d="M-92.6080 -49.6852
L-92.5366 -49.6138
" />
<path d="M-92.5366 -49.6138
L-92.3937 -49.5424
" />
<path d="M-92.3937 -49.5424
L-92.1080 -49.5424
" />
<path d="M-92.1080 -49.5424
L-91.9651 -49.6138
" />
<path d="M-91.9651 -49.6138
L-91.8937 -49.6852
" />
<path d="M-91.8937 -49.6852
L-91.8223 -49.8281
" />
<path d="M-91.8223 -49.8281
L-91.8223 -50.1852
" />
<path d="M-91.8223 -50.1852
L-91.8937 -50.3281
" />
<path d="M-91.8937 -50.3281
L-91.9651 -50.3995
" />
<path d="M-91.9651 -50.3995
L-92.1080 -50.4709
" />
<path d="M-92.1080 -50.4709
L-92.3937 -50.4709
" />
<path d="M-92.3937 -50.4709
L-92.5366 -50.3995
" />
<path d="M-92.5366 -50.3995
L-92.6080 -50.3281
" />
<path d="M-92.6080 -50.3281
L-92.6794 -50.1852
" />
</g></g>
<g style="fill:none; 
stroke:#C872AB; stroke-width:0.1500; stroke-opacity:1; 
stroke-linecap:round; stroke-linejoin:round;">
<path d="M-136.6352 -48.8285
L-28.6352 -48.8285
" />
</g>
<g style="fill:none; 
stroke:#C872AB; stroke-width:0.1500; stroke-opacity:1; 
stroke-linecap:round; stroke-linejoin:round;">
<text x="-135.6352" y="-46.6785"
textLength="20.8643" font-size="2.0000" lengthAdjust="spacingAndGlyphs"
text-anchor="start" opacity="0" stroke-opacity="0">KiCad E.D.A. 9.0.6</text>
<g class="stroked-text"><desc>KiCad E.D.A. 9.0.6</desc>
<path d="M-135.1794 -46.7424
L-135.1794 -48.2424
" />
<path d="M-134.3223 -46.7424
L-134.9651 -47.5995
" />
<path d="M-134.3223 -48.2424
L-135.1794 -47.3852
" />
<path d="M-133.6794 -46.7424
L-133.6794 -47.7424
" />
<path d="M-133.6794 -48.2424
L-133.7509 -48.1709
" />
<path d="M-133.7509 -48.1709
L-133.6794 -48.0995
" />
<path d="M-133.6794 -48.0995
L-133.6080 -48.1709
" />
<path d="M-133.6080 -48.1709
L-133.6794 -48.2424
" />
<path d="M-133.6794 -48.2424
L-133.6794 -48.0995
" />
<path d="M-132.1080 -46.8852
L-132.1794 -46.8138
" />
<path d="M-132.1794 -46.8138
L-132.3937 -46.7424
" />
<path d="M-132.3937 -46.7424
L-132.5366 -46.7424
" />
<path d="M-132.5366 -46.7424
L-132.7509 -46.8138
" />
<path d="M-132.7509 -46.8138
L-132.8937 -46.9567
" />
<path d="M-132.8937 -46.9567
L-132.9651 -47.0995
" />
<path d="M-132.9651 -47.0995
L-133.0366 -47.3852
" />
<path d="M-133.0366 -47.3852
L-133.0366 -47.5995
" />
<path d="M-133.0366 -47.5995
L-132.9651 -47.8852
" />
<path d="M-132.9651 -47.8852
L-132.8937 -48.0281
" />
<path d="M-132.8937 -48.0281
L-132.7509 -48.1709
" />
<path d="M-132.7509 -48.1709
L-132.5366 -48.2424
" />
<path d="M-132.5366 -48.2424
L-132.3937 -48.2424
" />
<path d="M-132.3937 -48.2424
L-132.1794 -48.1709
" />
<path d="M-132.1794 -48.1709
L-132.1080 -48.0995
" />
<path d="M-130.8223 -46.7424
L-130.8223 -47.5281
" />
<path d="M-130.8223 -47.5281
L-130.8937 -47.6709
" />
<path d="M-130.8937 -47.6709
L-131.0366 -47.7424
" />
<path d="M-131.0366 -47.7424
L-131.3223 -47.7424
" />
<path d="M-131.3223 -47.7424
L-131.4651 -47.6709
" />
<path d="M-130.8223 -46.8138
L-130.9651 -46.7424
" />
<path d="M-130.9651 -46.7424
L-131.3223 -46.7424
" />
<path d="M-131.3223 -46.7424
L-131.4651 -46.8138
" />
<path d="M-131.4651 -46.8138
L-131.5366 -46.9567
" />
<path d="M-131.5366 -46.9567
L-131.5366 -47.0995
" />
<path d="M-131.5366 -47.0995
L-131.4651 -47.2424
" />
<path d="M-131.4651 -47.2424
L-131.3223 -47.3138
" />
<path d="M-131.3223 -47.3138
L-130.9651 -47.3138
" />
<path d="M-130.9651 -47.3138
L-130.8223 -47.3852
" />
<path d="M-129.4651 -46.7424
L-129.4651 -48.2424
" />
<path d="M-129.4651 -46.8138
L-129.6080 -46.7424
" />
<path d="M-129.6080 -46.7424
L-129.8937 -46.7424
" />
<path d="M-129.8937 -46.7424
L-130.0366 -46.8138
" />
<path d="M-130.0366 -46.8138
L-130.1080 -46.8852
" />
<path d="M-130.1080 -46.8852
L-130.1794 -47.0281
" />
<path d="M-130.1794 -47.0281
L-130.1794 -47.4567
" />
<path d="M-130.1794 -47.4567
L-130.1080 -47.5995
" />
<path d="M-130.1080 -47.5995
L-130.0366 -47.6709
" />
<path d="M-130.0366 -47.6709
L-129.8937 -47.7424
" />
<path d="M-129.8937 -47.7424
L-129.6080 -47.7424
" />
<path d="M-129.6080 -47.7424
L-129.4651 -47.6709
" />
<path d="M-127.6080 -47.5281
L-127.1080 -47.5281
" />
<path d="M-126.8937 -46.7424
L-127.6080 -46.7424
" />
<path d="M-127.6080 -46.7424
L-127.6080 -48.2424
" />
<path d="M-127.6080 -48.2424
L-126.8937 -48.2424
" />
<path d="M-126.2509 -46.8852
L-126.1794 -46.8138
" />
<path d="M-126.1794 -46.8138
L-126.2509 -46.7424
" />
<path d="M-126.2509 -46.7424
L-126.3223 -46.8138
" />
<path d="M-126.3223 -46.8138
L-126.2509 -46.8852
" />
<path d="M-126.2509 -46.8852
L-126.2509 -46.7424
" />
<path d="M-125.5366 -46.7424
L-125.5366 -48.2424
" />
<path d="M-125.5366 -48.2424
L-125.1794 -48.2424
" />
<path d="M-125.1794 -48.2424
L-124.9651 -48.1709
" />
<path d="M-124.9651 -48.1709
L-124.8223 -48.0281
" />
<path d="M-124.8223 -48.0281
L-124.7508 -47.8852
" />
<path d="M-124.7508 -47.8852
L-124.6794 -47.5995
" />
<path d="M-124.6794 -47.5995
L-124.6794 -47.3852
" />
<path d="M-124.6794 -47.3852
L-124.7508 -47.0995
" />
<path d="M-124.7508 -47.0995
L-124.8223 -46.9567
" />
<path d="M-124.8223 -46.9567
L-124.9651 -46.8138
" />
<path d="M-124.9651 -46.8138
L-125.1794 -46.7424
" />
<path d="M-125.1794 -46.7424
L-125.5366 -46.7424
" />
<path d="M-124.0366 -46.8852
L-123.9651 -46.8138
" />
<path d="M-123.9651 -46.8138
L-124.0366 -46.7424
" />
<path d="M-124.0366 -46.7424
L-124.1080 -46.8138
" />
<path d="M-124.1080 -46.8138
L-124.0366 -46.8852
" />
<path d="M-124.0366 -46.8852
L-124.0366 -46.7424
" />
<path d="M-123.3937 -47.1709
L-122.6794 -47.1709
" />
<path d="M-123.5366 -46.7424
L-123.0366 -48.2424
" />
<path d="M-123.0366 -48.2424
L-122.5366 -46.7424
" />
<path d="M-122.0366 -46.8852
L-121.9651 -46.8138
" />
<path d="M-121.9651 -46.8138
L-122.0366 -46.7424
" />
<path d="M-122.0366 -46.7424
L-122.1080 -46.8138
" />
<path d="M-122.1080 -46.8138
L-122.0366 -46.8852
" />
<path d="M-122.0366 -46.8852
L-122.0366 -46.7424
" />
<path d="M-120.1080 -46.7424
L-119.8223 -46.7424
" />
<path d="M-119.8223 -46.7424
L-119.6794 -46.8138
" />
<path d="M-119.6794 -46.8138
L-119.6080 -46.8852
" />
<path d="M-119.6080 -46.8852
L-119.4651 -47.0995
" />
<path d="M-119.4651 -47.0995
L-119.3937 -47.3852
" />
<path d="M-119.3937 -47.3852
L-119.3937 -47.9567
" />
<path d="M-119.3937 -47.9567
L-119.4651 -48.0995
" />
<path d="M-119.4651 -48.0995
L-119.5366 -48.1709
" />
<path d="M-119.5366 -48.1709
L-119.6794 -48.2424
" />
<path d="M-119.6794 -48.2424
L-119.9651 -48.2424
" />
<path d="M-119.9651 -48.2424
L-120.1080 -48.1709
" />
<path d="M-120.1080 -48.1709
L-120.1794 -48.0995
" />
<path d="M-120.1794 -48.0995
L-120.2508 -47.9567
" />
<path d="M-120.2508 -47.9567
L-120.2508 -47.5995
" />
<path d="M-120.2508 -47.5995
L-120.1794 -47.4567
" />
<path d="M-120.1794 -47.4567
L-120.1080 -47.3852
" />
<path d="M-120.1080 -47.3852
L-119.9651 -47.3138
" />
<path d="M-119.9651 -47.3138
L-119.6794 -47.3138
" />
<path d="M-119.6794 -47.3138
L-119.5366 -47.3852
" />
<path d="M-119.5366 -47.3852
L-119.4651 -47.4567
" />
<path d="M-119.4651 -47.4567
L-119.3937 -47.5995
" />
<path d="M-118.7509 -46.8852
L-118.6794 -46.8138
" />
<path d="M-118.6794 -46.8138
L-118.7509 -46.7424
" />
<path d="M-118.7509 -46.7424
L-118.8223 -46.8138
" />
<path d="M-118.8223 -46.8138
L-118.7509 -46.8852
" />
<path d="M-118.7509 -46.8852
L-118.7509 -46.7424
" />
<path d="M-117.7508 -48.2424
L-117.6080 -48.2424
" />
<path d="M-117.6080 -48.2424
L-117.4651 -48.1709
" />
<path d="M-117.4651 -48.1709
L-117.3937 -48.0995
" />
<path d="M-117.3937 -48.0995
L-117.3223 -47.9567
" />
<path d="M-117.3223 -47.9567
L-117.2508 -47.6709
" />
<path d="M-117.2508 -47.6709
L-117.2508 -47.3138
" />
<path d="M-117.2508 -47.3138
L-117.3223 -47.0281
" />
<path d="M-117.3223 -47.0281
L-117.3937 -46.8852
" />
<path d="M-117.3937 -46.8852
L-117.4651 -46.8138
" />
<path d="M-117.4651 -46.8138
L-117.6080 -46.7424
" />
<path d="M-117.6080 -46.7424
L-117.7508 -46.7424
" />
<path d="M-117.7508 -46.7424
L-117.8937 -46.8138
" />
<path d="M-117.8937 -46.8138
L-117.9651 -46.8852
" />
<path d="M-117.9651 -46.8852
L-118.0366 -47.0281
" />
<path d="M-118.0366 -47.0281
L-118.1080 -47.3138
" />
<path d="M-118.1080 -47.3138
L-118.1080 -47.6709
" />
<path d="M-118.1080 -47.6709
L-118.0366 -47.9567
" />
<path d="M-118.0366 -47.9567
L-117.9651 -48.0995
" />
<path d="M-117.9651 -48.0995
L-117.8937 -48.1709
" />
<path d="M-117.8937 -48.1709
L-117.7508 -48.2424
" />
<path d="M-116.6080 -46.8852
L-116.5366 -46.8138
" />
<path d="M-116.5366 -46.8138
L-116.6080 -46.7424
" />
<path d="M-116.6080 -46.7424
L-116.6794 -46.8138
" />
<path d="M-116.6794 -46.8138
L-116.6080 -46.8852
" />
<path d="M-116.6080 -46.8852
L-116.6080 -46.7424
" />
<path d="M-115.2509 -48.2424
L-115.5366 -48.2424
" />
<path d="M-115.5366 -48.2424
L-115.6794 -48.1709
" />
<path d="M-115.6794 -48.1709
L-115.7509 -48.0995
" />
<path d="M-115.7509 -48.0995
L-115.8937 -47.8852
" />
<path d="M-115.8937 -47.8852
L-115.9651 -47.5995
" />
<path d="M-115.9651 -47.5995
L-115.9651 -47.0281
" />
<path d="M-115.9651 -47.0281
L-115.8937 -46.8852
" />
<path d="M-115.8937 -46.8852
L-115.8223 -46.8138
" />
<path d="M-115.8223 -46.8138
L-115.6794 -46.7424
" />
<path d="M-115.6794 -46.7424
L-115.3937 -46.7424
" />
<path d="M-115.3937 -46.7424
L-115.2509 -46.8138
" />
<path d="M-115.2509 -46.8138
L-115.1794 -46.8852
" />
<path d="M-115.1794 -46.8852
L-115.1080 -47.0281
" />
<path d="M-115.1080 -47.0281
L-115.1080 -47.3852
" />
<path d="M-115.1080 -47.3852
L-115.1794 -47.5281
" />
<path d="M-115.1794 -47.5281
L-115.2509 -47.5995
" />
<path d="M-115.2509 -47.5995
L-115.3937 -47.6709
" />
<path d="M-115.3937 -47.6709
L-115.6794 -47.6709
" />
<path d="M-115.6794 -47.6709
L-115.8223 -47.5995
" />
<path d="M-115.8223 -47.5995
L-115.8937 -47.5281
" />
<path d="M-115.8937 -47.5281
L-115.9651 -47.3852
" />
</g></g>
<g style="fill:none; 
stroke:#C872AB; stroke-width:0.1500; stroke-opacity:1; 
stroke-linecap:round; stroke-linejoin:round;">
<path d="M-136.6352 -51.8285
L-28.6352 -51.8285
" />
</g>
<g style="fill:none; 
stroke:#C872AB; stroke-width:0.3000; stroke-opacity:1; 
stroke-linecap:round; stroke-linejoin:round;">
<text x="-50.6352" y="-49.4785"
textLength="9.9571" font-size="2.0000" lengthAdjust="spacingAndGlyphs"
text-anchor="start" opacity="0" stroke-opacity="0">Rev: 1.0</text>
<g class="stroked-text"><desc>Rev: 1.0</desc>
<path d="M-49.2236 -49.5502
L-49.7236 -50.2645
" />
<path d="M-50.0807 -49.5502
L-50.0807 -51.0502
" />
<path d="M-50.0807 -51.0502
L-49.5093 -51.0502
" />
<path d="M-49.5093 -51.0502
L-49.3665 -50.9787
" />
<path d="M-49.3665 -50.9787
L-49.2950 -50.9073
" />
<path d="M-49.2950 -50.9073
L-49.2236 -50.7645
" />
<path d="M-49.2236 -50.7645
L-49.2236 -50.5502
" />
<path d="M-49.2236 -50.5502
L-49.2950 -50.4073
" />
<path d="M-49.2950 -50.4073
L-49.3665 -50.3359
" />
<path d="M-49.3665 -50.3359
L-49.5093 -50.2645
" />
<path d="M-49.5093 -50.2645
L-50.0807 -50.2645
" />
<path d="M-48.0093 -49.6216
L-48.1522 -49.5502
" />
<path d="M-48.1522 -49.5502
L-48.4379 -49.5502
" />
<path d="M-48.4379 -49.5502
L-48.5807 -49.6216
" />
<path d="M-48.5807 -49.6216
L-48.6522 -49.7645
" />
<path d="M-48.6522 -49.7645
L-48.6522 -50.3359
" />
<path d="M-48.6522 -50.3359
L-48.5807 -50.4787
" />
<path d="M-48.5807 -50.4787
L-48.4379 -50.5502
" />
<path d="M-48.4379 -50.5502
L-48.1522 -50.5502
" />
<path d="M-48.1522 -50.5502
L-48.0093 -50.4787
" />
<path d="M-48.0093 -50.4787
L-47.9379 -50.3359
" />
<path d="M-47.9379 -50.3359
L-47.9379 -50.1930
" />
<path d="M-47.9379 -50.1930
L-48.6522 -50.0502
" />
<path d="M-47.4379 -50.5502
L-47.0807 -49.5502
" />
<path d="M-47.0807 -49.5502
L-46.7236 -50.5502
" />
<path d="M-46.1522 -49.6930
L-46.0807 -49.6216
" />
<path d="M-46.0807 -49.6216
L-46.1522 -49.5502
" />
<path d="M-46.1522 -49.5502
L-46.2236 -49.6216
" />
<path d="M-46.2236 -49.6216
L-46.1522 -49.6930
" />
<path d="M-46.1522 -49.6930
L-46.1522 -49.5502
" />
<path d="M-46.1522 -50.4787
L-46.0807 -50.4073
" />
<path d="M-46.0807 -50.4073
L-46.1522 -50.3359
" />
<path d="M-46.1522 -50.3359
L-46.2236 -50.4073
" />
<path d="M-46.2236 -50.4073
L-46.1522 -50.4787
" />
<path d="M-46.1522 -50.4787
L-46.1522 -50.3359
" />
<path d="M-43.5093 -49.5502
L-44.3665 -49.5502
" />
<path d="M-43.9379 -49.5502
L-43.9379 -51.0502
" />
<path d="M-43.9379 -51.0502
L-44.0807 -50.8359
" />
<path d="M-44.0807 -50.8359
L-44.2236 -50.6930
" />
<path d="M-44.2236 -50.6930
L-44.3665 -50.6216
" />
<path d="M-42.8665 -49.6930
L-42.7950 -49.6216
" />
<path d="M-42.7950 -49.6216
L-42.8665 -49.5502
" />
<path d="M-42.8665 -49.5502
L-42.9379 -49.6216
" />
<path d="M-42.9379 -49.6216
L-42.8665 -49.6930
" />
<path d="M-42.8665 -49.6930
L-42.8665 -49.5502
" />
<path d="M-41.8665 -51.0502
L-41.7236 -51.0502
" />
<path d="M-41.7236 -51.0502
L-41.5807 -50.9787
" />
<path d="M-41.5807 -50.9787
L-41.5093 -50.9073
" />
<path d="M-41.5093 -50.9073
L-41.4379 -50.7645
" />
<path d="M-41.4379 -50.7645
L-41.3665 -50.4787
" />
<path d="M-41.3665 -50.4787
L-41.3665 -50.1216
" />
<path d="M-41.3665 -50.1216
L-41.4379 -49.8359
" />
<path d="M-41.4379 -49.8359
L-41.5093 -49.6930
" />
<path d="M-41.5093 -49.6930
L-41.5807 -49.6216
" />
<path d="M-41.5807 -49.6216
L-41.7236 -49.5502
" />
<path d="M-41.7236 -49.5502
L-41.8665 -49.5502
" />
<path d="M-41.8665 -49.5502
L-42.0093 -49.6216
" />
<path d="M-42.0093 -49.6216
L-42.0807 -49.6930
" />
<path d="M-42.0807 -49.6930
L-42.1522 -49.8359
" />
<path d="M-42.1522 -49.8359
L-42.2236 -50.1216
" />
<path d="M-42.2236 -50.1216
L-42.2236 -50.4787
" />
<path d="M-42.2236 -50.4787
L-42.1522 -50.7645
" />
<path d="M-42.1522 -50.7645
L-42.0807 -50.9073
" />
<path d="M-42.0807 -50.9073
L-42.0093 -50.9787
" />
<path d="M-42.0093 -50.9787
L-41.8665 -51.0502
" />
</g></g>
<g style="fill:none; 
stroke:#C872AB; stroke-width:0.1500; stroke-opacity:1; 
stroke-linecap:round; stroke-linejoin:round;">
<text x="-135.6352" y="-49.4785"
textLength="11.6500" font-size="2.0000" lengthAdjust="spacingAndGlyphs"
text-anchor="start" opacity="0" stroke-opacity="0">Size: User</text>
<g class="stroked-text"><desc>Size: User</desc>
<path d="M-135.2509 -49.6138
L-135.0366 -49.5424
" />
<path d="M-135.0366 -49.5424
L-134.6794 -49.5424
" />
<path d="M-134.6794 -49.5424
L-134.5366 -49.6138
" />
<path d="M-134.5366 -49.6138
L-134.4651 -49.6852
" />
<path d="M-134.4651 -49.6852
L-134.3937 -49.8281
" />
<path d="M-134.3937 -49.8281
L-134.3937 -49.9709
" />
<path d="M-134.3937 -49.9709
L-134.4651 -50.1138
" />
<path d="M-134.4651 -50.1138
L-134.5366 -50.1852
" />
<path d="M-134.5366 -50.1852
L-134.6794 -50.2567
" />
<path d="M-134.6794 -50.2567
L-134.9651 -50.3281
" />
<path d="M-134.9651 -50.3281
L-135.1080 -50.3995
" />
<path d="M-135.1080 -50.3995
L-135.1794 -50.4709
" />
<path d="M-135.1794 -50.4709
L-135.2509 -50.6138
" />
<path d="M-135.2509 -50.6138
L-135.2509 -50.7567
" />
<path d="M-135.2509 -50.7567
L-135.1794 -50.8995
" />
<path d="M-135.1794 -50.8995
L-135.1080 -50.9709
" />
<path d="M-135.1080 -50.9709
L-134.9651 -51.0424
" />
<path d="M-134.9651 -51.0424
L-134.6080 -51.0424
" />
<path d="M-134.6080 -51.0424
L-134.3937 -50.9709
" />
<path d="M-133.7509 -49.5424
L-133.7509 -50.5424
" />
<path d="M-133.7509 -51.0424
L-133.8223 -50.9709
" />
<path d="M-133.8223 -50.9709
L-133.7509 -50.8995
" />
<path d="M-133.7509 -50.8995
L-133.6794 -50.9709
" />
<path d="M-133.6794 -50.9709
L-133.7509 -51.0424
" />
<path d="M-133.7509 -51.0424
L-133.7509 -50.8995
" />
<path d="M-133.1794 -50.5424
L-132.3937 -50.5424
" />
<path d="M-132.3937 -50.5424
L-133.1794 -49.5424
" />
<path d="M-133.1794 -49.5424
L-132.3937 -49.5424
" />
<path d="M-131.2509 -49.6138
L-131.3937 -49.5424
" />
<path d="M-131.3937 -49.5424
L-131.6794 -49.5424
" />
<path d="M-131.6794 -49.5424
L-131.8223 -49.6138
" />
<path d="M-131.8223 -49.6138
L-131.8937 -49.7567
" />
<path d="M-131.8937 -49.7567
L-131.8937 -50.3281
" />
<path d="M-131.8937 -50.3281
L-131.8223 -50.4709
" />
<path d="M-131.8223 -50.4709
L-131.6794 -50.5424
" />
<path d="M-131.6794 -50.5424
L-131.3937 -50.5424
" />
<path d="M-131.3937 -50.5424
L-131.2509 -50.4709
" />
<path d="M-131.2509 -50.4709
L-131.1794 -50.3281
" />
<path d="M-131.1794 -50.3281
L-131.1794 -50.1852
" />
<path d="M-131.1794 -50.1852
L-131.8937 -50.0424
" />
<path d="M-130.5366 -49.6852
L-130.4651 -49.6138
" />
<path d="M-130.4651 -49.6138
L-130.5366 -49.5424
" />
<path d="M-130.5366 -49.5424
L-130.6080 -49.6138
" />
<path d="M-130.6080 -49.6138
L-130.5366 -49.6852
" />
<path d="M-130.5366 -49.6852
L-130.5366 -49.5424
" />
<path d="M-130.5366 -50.4709
L-130.4651 -50.3995
" />
<path d="M-130.4651 -50.3995
L-130.5366 -50.3281
" />
<path d="M-130.5366 -50.3281
L-130.6080 -50.3995
" />
<path d="M-130.6080 -50.3995
L-130.5366 -50.4709
" />
<path d="M-130.5366 -50.4709
L-130.5366 -50.3281
" />
<path d="M-128.6794 -51.0424
L-128.6794 -49.8281
" />
<path d="M-128.6794 -49.8281
L-128.6080 -49.6852
" />
<path d="M-128.6080 -49.6852
L-128.5366 -49.6138
" />
<path d="M-128.5366 -49.6138
L-128.3937 -49.5424
" />
<path d="M-128.3937 -49.5424
L-128.1080 -49.5424
" />
<path d="M-128.1080 -49.5424
L-127.9651 -49.6138
" />
<path d="M-127.9651 -49.6138
L-127.8937 -49.6852
" />
<path d="M-127.8937 -49.6852
L-127.8223 -49.8281
" />
<path d="M-127.8223 -49.8281
L-127.8223 -51.0424
" />
<path d="M-127.1794 -49.6138
L-127.0366 -49.5424
" />
<path d="M-127.0366 -49.5424
L-126.7509 -49.5424
" />
<path d="M-126.7509 -49.5424
L-126.6080 -49.6138
" />
<path d="M-126.6080 -49.6138
L-126.5366 -49.7567
" />
<path d="M-126.5366 -49.7567
L-126.5366 -49.8281
" />
<path d="M-126.5366 -49.8281
L-126.6080 -49.9709
" />
<path d="M-126.6080 -49.9709
L-126.7509 -50.0424
" />
<path d="M-126.7509 -50.0424
L-126.9651 -50.0424
" />
<path d="M-126.9651 -50.0424
L-127.1080 -50.1138
" />
<path d="M-127.1080 -50.1138
L-127.1794 -50.2567
" />
<path d="M-127.1794 -50.2567
L-127.1794 -50.3281
" />
<path d="M-127.1794 -50.3281
L-127.1080 -50.4709
" />
<path d="M-127.1080 -50.4709
L-126.9651 -50.5424
" />
<path d="M-126.9651 -50.5424
L-126.7509 -50.5424
" />
<path d="M-126.7509 -50.5424
L-126.6080 -50.4709
" />
<path d="M-125.3223 -49.6138
L-125.4651 -49.5424
" />
<path d="M-125.4651 -49.5424
L-125.7509 -49.5424
" />
<path d="M-125.7509 -49.5424
L-125.8937 -49.6138
" />
<path d="M-125.8937 -49.6138
L-125.9651 -49.7567
" />
<path d="M-125.9651 -49.7567
L-125.9651 -50.3281
" />
<path d="M-125.9651 -50.3281
L-125.8937 -50.4709
" />
<path d="M-125.8937 -50.4709
L-125.7509 -50.5424
" />
<path d="M-125.7509 -50.5424
L-125.4651 -50.5424
" />
<path d="M-125.4651 -50.5424
L-125.3223 -50.4709
" />
<path d="M-125.3223 -50.4709
L-125.2509 -50.3281
" />
<path d="M-125.2509 -50.3281
L-125.2509 -50.1852
" />
<path d="M-125.2509 -50.1852
L-125.9651 -50.0424
" />
<path d="M-124.6080 -49.5424
L-124.6080 -50.5424
" />
<path d="M-124.6080 -50.2567
L-124.5366 -50.3995
" />
<path d="M-124.5366 -50.3995
L-124.4651 -50.4709
" />
<path d="M-124.4651 -50.4709
L-124.3223 -50.5424
" />
<path d="M-124.3223 -50.5424
L-124.1794 -50.5424
" />
</g></g>
<g style="fill:none; 
stroke:#C872AB; stroke-width:0.1500; stroke-opacity:1; 
stroke-linecap:round; stroke-linejoin:round;">
<text x="-50.6352" y="-46.6785"
textLength="8.5071" font-size="2.0000" lengthAdjust="spacingAndGlyphs"
text-anchor="start" opacity="0" stroke-opacity="0">Id: 1/1</text>
<g class="stroked-text"><desc>Id: 1/1</desc>
<path d="M-50.1794 -46.7424
L-50.1794 -48.2424
" />
<path d="M-48.8223 -46.7424
L-48.8223 -48.2424
" />
<path d="M-48.8223 -46.8138
L-48.9651 -46.7424
" />
<path d="M-48.9651 -46.7424
L-49.2509 -46.7424
" />
<path d="M-49.2509 -46.7424
L-49.3937 -46.8138
" />
<path d="M-49.3937 -46.8138
L-49.4651 -46.8852
" />
<path d="M-49.4651 -46.8852
L-49.5366 -47.0281
" />
<path d="M-49.5366 -47.0281
L-49.5366 -47.4567
" />
<path d="M-49.5366 -47.4567
L-49.4651 -47.5995
" />
<path d="M-49.4651 -47.5995
L-49.3937 -47.6709
" />
<path d="M-49.3937 -47.6709
L-49.2509 -47.7424
" />
<path d="M-49.2509 -47.7424
L-48.9651 -47.7424
" />
<path d="M-48.9651 -47.7424
L-48.8223 -47.6709
" />
<path d="M-48.1080 -46.8852
L-48.0366 -46.8138
" />
<path d="M-48.0366 -46.8138
L-48.1080 -46.7424
" />
<path d="M-48.1080 -46.7424
L-48.1794 -46.8138
" />
<path d="M-48.1794 -46.8138
L-48.1080 -46.8852
" />
<path d="M-48.1080 -46.8852
L-48.1080 -46.7424
" />
<path d="M-48.1080 -47.6709
L-48.0366 -47.5995
" />
<path d="M-48.0366 -47.5995
L-48.1080 -47.5281
" />
<path d="M-48.1080 -47.5281
L-48.1794 -47.5995
" />
<path d="M-48.1794 -47.5995
L-48.1080 -47.6709
" />
<path d="M-48.1080 -47.6709
L-48.1080 -47.5281
" />
<path d="M-45.4651 -46.7424
L-46.3223 -46.7424
" />
<path d="M-45.8937 -46.7424
L-45.8937 -48.2424
" />
<path d="M-45.8937 -48.2424
L-46.0366 -48.0281
" />
<path d="M-46.0366 -48.0281
L-46.1794 -47.8852
" />
<path d="M-46.1794 -47.8852
L-46.3223 -47.8138
" />
<path d="M-43.7509 -48.3138
L-45.0366 -46.3852
" />
<path d="M-42.4651 -46.7424
L-43.3223 -46.7424
" />
<path d="M-42.8937 -46.7424
L-42.8937 -48.2424
" />
<path d="M-42.8937 -48.2424
L-43.0366 -48.0281
" />
<path d="M-43.0366 -48.0281
L-43.1794 -47.8852
" />
<path d="M-43.1794 -47.8852
L-43.3223 -47.8138
" />
</g></g>
<g style="fill:none; 
stroke:#C872AB; stroke-width:0.1500; stroke-opacity:1; 
stroke-linecap:round; stroke-linejoin:round;">
<path d="M-136.6352 -55.8285
L-28.6352 -55.8285
" />
</g>
<g style="fill:none; 
stroke:#C872AB; stroke-width:0.4000; stroke-opacity:1; 
stroke-linecap:round; stroke-linejoin:round;">
<text x="-135.6352" y="-53.0285"
textLength="34.8952" font-size="2.6667" lengthAdjust="spacingAndGlyphs"
text-anchor="start" opacity="0" stroke-opacity="0">Title: BUS CONNECTOR</text>
<g class="stroked-text"><desc>Title: BUS CONNECTOR</desc>
<path d="M-134.9435 -55.1241
L-133.8007 -55.1241
" />
<path d="M-134.6221 -53.1241
L-134.3721 -55.1241
" />
<path d="M-133.3840 -53.1241
L-133.2173 -54.4574
" />
<path d="M-133.1340 -55.1241
L-133.2411 -55.0288
" />
<path d="M-133.2411 -55.0288
L-133.1578 -54.9336
" />
<path d="M-133.1578 -54.9336
L-133.0507 -55.0288
" />
<path d="M-133.0507 -55.0288
L-133.1340 -55.1241
" />
<path d="M-133.1340 -55.1241
L-133.1578 -54.9336
" />
<path d="M-132.5507 -54.4574
L-131.7888 -54.4574
" />
<path d="M-132.1816 -55.1241
L-132.3959 -53.4098
" />
<path d="M-132.3959 -53.4098
L-132.3245 -53.2193
" />
<path d="M-132.3245 -53.2193
L-132.1459 -53.1241
" />
<path d="M-132.1459 -53.1241
L-131.9554 -53.1241
" />
<path d="M-131.0030 -53.1241
L-131.1816 -53.2193
" />
<path d="M-131.1816 -53.2193
L-131.2530 -53.4098
" />
<path d="M-131.2530 -53.4098
L-131.0388 -55.1241
" />
<path d="M-129.4673 -53.2193
L-129.6697 -53.1241
" />
<path d="M-129.6697 -53.1241
L-130.0507 -53.1241
" />
<path d="M-130.0507 -53.1241
L-130.2292 -53.2193
" />
<path d="M-130.2292 -53.2193
L-130.3007 -53.4098
" />
<path d="M-130.3007 -53.4098
L-130.2054 -54.1717
" />
<path d="M-130.2054 -54.1717
L-130.0864 -54.3622
" />
<path d="M-130.0864 -54.3622
L-129.8840 -54.4574
" />
<path d="M-129.8840 -54.4574
L-129.5030 -54.4574
" />
<path d="M-129.5030 -54.4574
L-129.3245 -54.3622
" />
<path d="M-129.3245 -54.3622
L-129.2530 -54.1717
" />
<path d="M-129.2530 -54.1717
L-129.2769 -53.9812
" />
<path d="M-129.2769 -53.9812
L-130.2530 -53.7907
" />
<path d="M-128.5030 -53.3145
L-128.4197 -53.2193
" />
<path d="M-128.4197 -53.2193
L-128.5269 -53.1241
" />
<path d="M-128.5269 -53.1241
L-128.6102 -53.2193
" />
<path d="M-128.6102 -53.2193
L-128.5030 -53.3145
" />
<path d="M-128.5030 -53.3145
L-128.5269 -53.1241
" />
<path d="M-128.3721 -54.3622
L-128.2888 -54.2669
" />
<path d="M-128.2888 -54.2669
L-128.3959 -54.1717
" />
<path d="M-128.3959 -54.1717
L-128.4792 -54.2669
" />
<path d="M-128.4792 -54.2669
L-128.3721 -54.3622
" />
<path d="M-128.3721 -54.3622
L-128.3959 -54.1717
" />
<path d="M-125.2530 -54.1717
L-124.9792 -54.0764
" />
<path d="M-124.9792 -54.0764
L-124.8959 -53.9812
" />
<path d="M-124.8959 -53.9812
L-124.8245 -53.7907
" />
<path d="M-124.8245 -53.7907
L-124.8602 -53.5050
" />
<path d="M-124.8602 -53.5050
L-124.9792 -53.3145
" />
<path d="M-124.9792 -53.3145
L-125.0864 -53.2193
" />
<path d="M-125.0864 -53.2193
L-125.2888 -53.1241
" />
<path d="M-125.2888 -53.1241
L-126.0507 -53.1241
" />
<path d="M-126.0507 -53.1241
L-125.8007 -55.1241
" />
<path d="M-125.8007 -55.1241
L-125.1340 -55.1241
" />
<path d="M-125.1340 -55.1241
L-124.9554 -55.0288
" />
<path d="M-124.9554 -55.0288
L-124.8721 -54.9336
" />
<path d="M-124.8721 -54.9336
L-124.8007 -54.7431
" />
<path d="M-124.8007 -54.7431
L-124.8245 -54.5526
" />
<path d="M-124.8245 -54.5526
L-124.9435 -54.3622
" />
<path d="M-124.9435 -54.3622
L-125.0507 -54.2669
" />
<path d="M-125.0507 -54.2669
L-125.2530 -54.1717
" />
<path d="M-125.2530 -54.1717
L-125.9197 -54.1717
" />
<path d="M-123.8007 -55.1241
L-124.0030 -53.5050
" />
<path d="M-124.0030 -53.5050
L-123.9316 -53.3145
" />
<path d="M-123.9316 -53.3145
L-123.8483 -53.2193
" />
<path d="M-123.8483 -53.2193
L-123.6697 -53.1241
" />
<path d="M-123.6697 -53.1241
L-123.2888 -53.1241
" />
<path d="M-123.2888 -53.1241
L-123.0864 -53.2193
" />
<path d="M-123.0864 -53.2193
L-122.9792 -53.3145
" />
<path d="M-122.9792 -53.3145
L-122.8602 -53.5050
" />
<path d="M-122.8602 -53.5050
L-122.6578 -55.1241
" />
<path d="M-122.0388 -53.2193
L-121.7649 -53.1241
" />
<path d="M-121.7649 -53.1241
L-121.2888 -53.1241
" />
<path d="M-121.2888 -53.1241
L-121.0864 -53.2193
" />
<path d="M-121.0864 -53.2193
L-120.9792 -53.3145
" />
<path d="M-120.9792 -53.3145
L-120.8602 -53.5050
" />
<path d="M-120.8602 -53.5050
L-120.8364 -53.6955
" />
<path d="M-120.8364 -53.6955
L-120.9078 -53.8860
" />
<path d="M-120.9078 -53.8860
L-120.9911 -53.9812
" />
<path d="M-120.9911 -53.9812
L-121.1697 -54.0764
" />
<path d="M-121.1697 -54.0764
L-121.5388 -54.1717
" />
<path d="M-121.5388 -54.1717
L-121.7173 -54.2669
" />
<path d="M-121.7173 -54.2669
L-121.8007 -54.3622
" />
<path d="M-121.8007 -54.3622
L-121.8721 -54.5526
" />
<path d="M-121.8721 -54.5526
L-121.8483 -54.7431
" />
<path d="M-121.8483 -54.7431
L-121.7292 -54.9336
" />
<path d="M-121.7292 -54.9336
L-121.6221 -55.0288
" />
<path d="M-121.6221 -55.0288
L-121.4197 -55.1241
" />
<path d="M-121.4197 -55.1241
L-120.9435 -55.1241
" />
<path d="M-120.9435 -55.1241
L-120.6697 -55.0288
" />
<path d="M-117.3602 -53.3145
L-117.4673 -53.2193
" />
<path d="M-117.4673 -53.2193
L-117.7649 -53.1241
" />
<path d="M-117.7649 -53.1241
L-117.9554 -53.1241
" />
<path d="M-117.9554 -53.1241
L-118.2292 -53.2193
" />
<path d="M-118.2292 -53.2193
L-118.3959 -53.4098
" />
<path d="M-118.3959 -53.4098
L-118.4673 -53.6003
" />
<path d="M-118.4673 -53.6003
L-118.5149 -53.9812
" />
<path d="M-118.5149 -53.9812
L-118.4792 -54.2669
" />
<path d="M-118.4792 -54.2669
L-118.3364 -54.6479
" />
<path d="M-118.3364 -54.6479
L-118.2173 -54.8383
" />
<path d="M-118.2173 -54.8383
L-118.0030 -55.0288
" />
<path d="M-118.0030 -55.0288
L-117.7054 -55.1241
" />
<path d="M-117.7054 -55.1241
L-117.5149 -55.1241
" />
<path d="M-117.5149 -55.1241
L-117.2411 -55.0288
" />
<path d="M-117.2411 -55.0288
L-117.1578 -54.9336
" />
<path d="M-115.8959 -55.1241
L-115.5149 -55.1241
" />
<path d="M-115.5149 -55.1241
L-115.3364 -55.0288
" />
<path d="M-115.3364 -55.0288
L-115.1697 -54.8383
" />
<path d="M-115.1697 -54.8383
L-115.1221 -54.4574
" />
<path d="M-115.1221 -54.4574
L-115.2054 -53.7907
" />
<path d="M-115.2054 -53.7907
L-115.3483 -53.4098
" />
<path d="M-115.3483 -53.4098
L-115.5626 -53.2193
" />
<path d="M-115.5626 -53.2193
L-115.7649 -53.1241
" />
<path d="M-115.7649 -53.1241
L-116.1459 -53.1241
" />
<path d="M-116.1459 -53.1241
L-116.3245 -53.2193
" />
<path d="M-116.3245 -53.2193
L-116.4911 -53.4098
" />
<path d="M-116.4911 -53.4098
L-116.5388 -53.7907
" />
<path d="M-116.5388 -53.7907
L-116.4554 -54.4574
" />
<path d="M-116.4554 -54.4574
L-116.3126 -54.8383
" />
<path d="M-116.3126 -54.8383
L-116.0983 -55.0288
" />
<path d="M-116.0983 -55.0288
L-115.8959 -55.1241
" />
<path d="M-114.4316 -53.1241
L-114.1816 -55.1241
" />
<path d="M-114.1816 -55.1241
L-113.2888 -53.1241
" />
<path d="M-113.2888 -53.1241
L-113.0388 -55.1241
" />
<path d="M-112.3364 -53.1241
L-112.0864 -55.1241
" />
<path d="M-112.0864 -55.1241
L-111.1935 -53.1241
" />
<path d="M-111.1935 -53.1241
L-110.9435 -55.1241
" />
<path d="M-110.1102 -54.1717
L-109.4435 -54.1717
" />
<path d="M-109.2888 -53.1241
L-110.2411 -53.1241
" />
<path d="M-110.2411 -53.1241
L-109.9911 -55.1241
" />
<path d="M-109.9911 -55.1241
L-109.0388 -55.1241
" />
<path d="M-107.2649 -53.3145
L-107.3721 -53.2193
" />
<path d="M-107.3721 -53.2193
L-107.6697 -53.1241
" />
<path d="M-107.6697 -53.1241
L-107.8602 -53.1241
" />
<path d="M-107.8602 -53.1241
L-108.1340 -53.2193
" />
<path d="M-108.1340 -53.2193
L-108.3007 -53.4098
" />
<path d="M-108.3007 -53.4098
L-108.3721 -53.6003
" />
<path d="M-108.3721 -53.6003
L-108.4197 -53.9812
" />
<path d="M-108.4197 -53.9812
L-108.3840 -54.2669
" />
<path d="M-108.3840 -54.2669
L-108.2411 -54.6479
" />
<path d="M-108.2411 -54.6479
L-108.1221 -54.8383
" />
<path d="M-108.1221 -54.8383
L-107.9078 -55.0288
" />
<path d="M-107.9078 -55.0288
L-107.6102 -55.1241
" />
<path d="M-107.6102 -55.1241
L-107.4197 -55.1241
" />
<path d="M-107.4197 -55.1241
L-107.1459 -55.0288
" />
<path d="M-107.1459 -55.0288
L-107.0626 -54.9336
" />
<path d="M-106.4673 -55.1241
L-105.3245 -55.1241
" />
<path d="M-106.1459 -53.1241
L-105.8959 -55.1241
" />
<path d="M-104.2769 -55.1241
L-103.8959 -55.1241
" />
<path d="M-103.8959 -55.1241
L-103.7173 -55.0288
" />
<path d="M-103.7173 -55.0288
L-103.5507 -54.8383
" />
<path d="M-103.5507 -54.8383
L-103.5030 -54.4574
" />
<path d="M-103.5030 -54.4574
L-103.5864 -53.7907
" />
<path d="M-103.5864 -53.7907
L-103.7292 -53.4098
" />
<path d="M-103.7292 -53.4098
L-103.9435 -53.2193
" />
<path d="M-103.9435 -53.2193
L-104.1459 -53.1241
" />
<path d="M-104.1459 -53.1241
L-104.5269 -53.1241
" />
<path d="M-104.5269 -53.1241
L-104.7054 -53.2193
" />
<path d="M-104.7054 -53.2193
L-104.8721 -53.4098
" />
<path d="M-104.8721 -53.4098
L-104.9197 -53.7907
" />
<path d="M-104.9197 -53.7907
L-104.8364 -54.4574
" />
<path d="M-104.8364 -54.4574
L-104.6935 -54.8383
" />
<path d="M-104.6935 -54.8383
L-104.4792 -55.0288
" />
<path d="M-104.4792 -55.0288
L-104.2769 -55.1241
" />
<path d="M-101.6697 -53.1241
L-102.2173 -54.0764
" />
<path d="M-102.8126 -53.1241
L-102.5626 -55.1241
" />
<path d="M-102.5626 -55.1241
L-101.8007 -55.1241
" />
<path d="M-101.8007 -55.1241
L-101.6221 -55.0288
" />
<path d="M-101.6221 -55.0288
L-101.5388 -54.9336
" />
<path d="M-101.5388 -54.9336
L-101.4673 -54.7431
" />
<path d="M-101.4673 -54.7431
L-101.5030 -54.4574
" />
<path d="M-101.5030 -54.4574
L-101.6221 -54.2669
" />
<path d="M-101.6221 -54.2669
L-101.7292 -54.1717
" />
<path d="M-101.7292 -54.1717
L-101.9316 -54.0764
" />
<path d="M-101.9316 -54.0764
L-102.6935 -54.0764
" />
</g></g>
<g style="fill:none; 
stroke:#C872AB; stroke-width:0.1500; stroke-opacity:1; 
stroke-linecap:round; stroke-linejoin:round;">
<text x="-135.6352" y="-56.8785"
textLength="34.0071" font-size="2.0000" lengthAdjust="spacingAndGlyphs"
text-anchor="start" opacity="0" stroke-opacity="0">File: bus_connector.kicad_pcb</text>
<g class="stroked-text"><desc>File: bus_connector.kicad_pcb</desc>
<path d="M-134.6794 -57.7281
L-135.1794 -57.7281
" />
<path d="M-135.1794 -56.9424
L-135.1794 -58.4424
" />
<path d="M-135.1794 -58.4424
L-134.4651 -58.4424
" />
<path d="M-133.8937 -56.9424
L-133.8937 -57.9424
" />
<path d="M-133.8937 -58.4424
L-133.9651 -58.3709
" />
<path d="M-133.9651 -58.3709
L-133.8937 -58.2995
" />
<path d="M-133.8937 -58.2995
L-133.8223 -58.3709
" />
<path d="M-133.8223 -58.3709
L-133.8937 -58.4424
" />
<path d="M-133.8937 -58.4424
L-133.8937 -58.2995
" />
<path d="M-132.9651 -56.9424
L-133.1080 -57.0138
" />
<path d="M-133.1080 -57.0138
L-133.1794 -57.1567
" />
<path d="M-133.1794 -57.1567
L-133.1794 -58.4424
" />
<path d="M-131.8223 -57.0138
L-131.9651 -56.9424
" />
<path d="M-131.9651 -56.9424
L-132.2509 -56.9424
" />
<path d="M-132.2509 -56.9424
L-132.3937 -57.0138
" />
<path d="M-132.3937 -57.0138
L-132.4651 -57.1567
" />
<path d="M-132.4651 -57.1567
L-132.4651 -57.7281
" />
<path d="M-132.4651 -57.7281
L-132.3937 -57.8709
" />
<path d="M-132.3937 -57.8709
L-132.2509 -57.9424
" />
<path d="M-132.2509 -57.9424
L-131.9651 -57.9424
" />
<path d="M-131.9651 -57.9424
L-131.8223 -57.8709
" />
<path d="M-131.8223 -57.8709
L-131.7509 -57.7281
" />
<path d="M-131.7509 -57.7281
L-131.7509 -57.5852
" />
<path d="M-131.7509 -57.5852
L-132.4651 -57.4424
" />
<path d="M-131.1080 -57.0852
L-131.0366 -57.0138
" />
<path d="M-131.0366 -57.0138
L-131.1080 -56.9424
" />
<path d="M-131.1080 -56.9424
L-131.1794 -57.0138
" />
<path d="M-131.1794 -57.0138
L-131.1080 -57.0852
" />
<path d="M-131.1080 -57.0852
L-131.1080 -56.9424
" />
<path d="M-131.1080 -57.8709
L-131.0366 -57.7995
" />
<path d="M-131.0366 -57.7995
L-131.1080 -57.7281
" />
<path d="M-131.1080 -57.7281
L-131.1794 -57.7995
" />
<path d="M-131.1794 -57.7995
L-131.1080 -57.8709
" />
<path d="M-131.1080 -57.8709
L-131.1080 -57.7281
" />
<path d="M-129.2509 -56.9424
L-129.2509 -58.4424
" />
<path d="M-129.2509 -57.8709
L-129.1080 -57.9424
" />
<path d="M-129.1080 -57.9424
L-128.8223 -57.9424
" />
<path d="M-128.8223 -57.9424
L-128.6794 -57.8709
" />
<path d="M-128.6794 -57.8709
L-128.6080 -57.7995
" />
<path d="M-128.6080 -57.7995
L-128.5366 -57.6567
" />
<path d="M-128.5366 -57.6567
L-128.5366 -57.2281
" />
<path d="M-128.5366 -57.2281
L-128.6080 -57.0852
" />
<path d="M-128.6080 -57.0852
L-128.6794 -57.0138
" />
<path d="M-128.6794 -57.0138
L-128.8223 -56.9424
" />
<path d="M-128.8223 -56.9424
L-129.1080 -56.9424
" />
<path d="M-129.1080 -56.9424
L-129.2509 -57.0138
" />
<path d="M-127.2509 -57.9424
L-127.2509 -56.9424
" />
<path d="M-127.8937 -57.9424
L-127.8937 -57.1567
" />
<path d="M-127.8937 -57.1567
L-127.8223 -57.0138
" />
<path d="M-127.8223 -57.0138
L-127.6794 -56.9424
" />
<path d="M-127.6794 -56.9424
L-127.4651 -56.9424
" />
<path d="M-127.4651 -56.9424
L-127.3223 -57.0138
" />
<path d="M-127.3223 -57.0138
L-127.2509 -57.0852
" />
<path d="M-126.6080 -57.0138
L-126.4651 -56.9424
" />
<path d="M-126.4651 -56.9424
L-126.1794 -56.9424
" />
<path d="M-126.1794 -56.9424
L-126.0366 -57.0138
" />
<path d="M-126.0366 -57.0138
L-125.9651 -57.1567
" />
<path d="M-125.9651 -57.1567
L-125.9651 -57.2281
" />
<path d="M-125.9651 -57.2281
L-126.0366 -57.3709
" />
<path d="M-126.0366 -57.3709
L-126.1794 -57.4424
" />
<path d="M-126.1794 -57.4424
L-126.3937 -57.4424
" />
<path d="M-126.3937 -57.4424
L-126.5366 -57.5138
" />
<path d="M-126.5366 -57.5138
L-126.6080 -57.6567
" />
<path d="M-126.6080 -57.6567
L-126.6080 -57.7281
" />
<path d="M-126.6080 -57.7281
L-126.5366 -57.8709
" />
<path d="M-126.5366 -57.8709
L-126.3937 -57.9424
" />
<path d="M-126.3937 -57.9424
L-126.1794 -57.9424
" />
<path d="M-126.1794 -57.9424
L-126.0366 -57.8709
" />
<path d="M-125.6794 -56.7995
L-124.5366 -56.7995
" />
<path d="M-123.5366 -57.0138
L-123.6794 -56.9424
" />
<path d="M-123.6794 -56.9424
L-123.9651 -56.9424
" />
<path d="M-123.9651 -56.9424
L-124.1080 -57.0138
" />
<path d="M-124.1080 -57.0138
L-124.1794 -57.0852
" />
<path d="M-124.1794 -57.0852
L-124.2509 -57.2281
" />
<path d="M-124.2509 -57.2281
L-124.2509 -57.6567
" />
<path d="M-124.2509 -57.6567
L-124.1794 -57.7995
" />
<path d="M-124.1794 -57.7995
L-124.1080 -57.8709
" />
<path d="M-124.1080 -57.8709
L-123.9651 -57.9424
" />
<path d="M-123.9651 -57.9424
L-123.6794 -57.9424
" />
<path d="M-123.6794 -57.9424
L-123.5366 -57.8709
" />
<path d="M-122.6794 -56.9424
L-122.8223 -57.0138
" />
<path d="M-122.8223 -57.0138
L-122.8937 -57.0852
" />
<path d="M-122.8937 -57.0852
L-122.9651 -57.2281
" />
<path d="M-122.9651 -57.2281
L-122.9651 -57.6567
" />
<path d="M-122.9651 -57.6567
L-122.8937 -57.7995
" />
<path d="M-122.8937 -57.7995
L-122.8223 -57.8709
" />
<path d="M-122.8223 -57.8709
L-122.6794 -57.9424
" />
<path d="M-122.6794 -57.9424
L-122.4651 -57.9424
" />
<path d="M-122.4651 -57.9424
L-122.3223 -57.8709
" />
<path d="M-122.3223 -57.8709
L-122.2509 -57.7995
" />
<path d="M-122.2509 -57.7995
L-122.1794 -57.6567
" />
<path d="M-122.1794 -57.6567
L-122.1794 -57.2281
" />
<path d="M-122.1794 -57.2281
L-122.2509 -57.0852
" />
<path d="M-122.2509 -57.0852
L-122.3223 -57.0138
" />
<path d="M-122.3223 -57.0138
L-122.4651 -56.9424
" />
<path d="M-122.4651 -56.9424
L-122.6794 -56.9424
" />
<path d="M-121.5366 -57.9424
L-121.5366 -56.9424
" />
<path d="M-121.5366 -57.7995
L-121.4651 -57.8709
" />
<path d="M-121.4651 -57.8709
L-121.3223 -57.9424
" />
<path d="M-121.3223 -57.9424
L-121.1080 -57.9424
" />
<path d="M-121.1080 -57.9424
L-120.9651 -57.8709
" />
<path d="M-120.9651 -57.8709
L-120.8937 -57.7281
" />
<path d="M-120.8937 -57.7281
L-120.8937 -56.9424
" />
<path d="M-120.1794 -57.9424
L-120.1794 -56.9424
" />
<path d="M-120.1794 -57.7995
L-120.1080 -57.8709
" />
<path d="M-120.1080 -57.8709
L-119.9651 -57.9424
" />
<path d="M-119.9651 -57.9424
L-119.7509 -57.9424
" />
<path d="M-119.7509 -57.9424
L-119.6080 -57.8709
" />
<path d="M-119.6080 -57.8709
L-119.5366 -57.7281
" />
<path d="M-119.5366 -57.7281
L-119.5366 -56.9424
" />
<path d="M-118.2509 -57.0138
L-118.3937 -56.9424
" />
<path d="M-118.3937 -56.9424
L-118.6794 -56.9424
" />
<path d="M-118.6794 -56.9424
L-118.8223 -57.0138
" />
<path d="M-118.8223 -57.0138
L-118.8937 -57.1567
" />
<path d="M-118.8937 -57.1567
L-118.8937 -57.7281
" />
<path d="M-118.8937 -57.7281
L-118.8223 -57.8709
" />
<path d="M-118.8223 -57.8709
L-118.6794 -57.9424
" />
<path d="M-118.6794 -57.9424
L-118.3937 -57.9424
" />
<path d="M-118.3937 -57.9424
L-118.2509 -57.8709
" />
<path d="M-118.2509 -57.8709
L-118.1794 -57.7281
" />
<path d="M-118.1794 -57.7281
L-118.1794 -57.5852
" />
<path d="M-118.1794 -57.5852
L-118.8937 -57.4424
" />
<path d="M-116.8937 -57.0138
L-117.0366 -56.9424
" />
<path d="M-117.0366 -56.9424
L-117.3223 -56.9424
" />
<path d="M-117.3223 -56.9424
L-117.4651 -57.0138
" />
<path d="M-117.4651 -57.0138
L-117.5366 -57.0852
" />
<path d="M-117.5366 -57.0852
L-117.6080 -57.2281
" />
<path d="M-117.6080 -57.2281
L-117.6080 -57.6567
" />
<path d="M-117.6080 -57.6567
L-117.5366 -57.7995
" />
<path d="M-117.5366 -57.7995
L-117.4651 -57.8709
" />
<path d="M-117.4651 -57.8709
L-117.3223 -57.9424
" />
<path d="M-117.3223 -57.9424
L-117.0366 -57.9424
" />
<path d="M-117.0366 -57.9424
L-116.8937 -57.8709
" />
<path d="M-116.4651 -57.9424
L-115.8937 -57.9424
" />
<path d="M-116.2509 -58.4424
L-116.2509 -57.1567
" />
<path d="M-116.2509 -57.1567
L-116.1794 -57.0138
" />
<path d="M-116.1794 -57.0138
L-116.0366 -56.9424
" />
<path d="M-116.0366 -56.9424
L-115.8937 -56.9424
" />
<path d="M-115.1794 -56.9424
L-115.3223 -57.0138
" />
<path d="M-115.3223 -57.0138
L-115.3937 -57.0852
" />
<path d="M-115.3937 -57.0852
L-115.4651 -57.2281
" />
<path d="M-115.4651 -57.2281
L-115.4651 -57.6567
" />
<path d="M-115.4651 -57.6567
L-115.3937 -57.7995
" />
<path d="M-115.3937 -57.7995
L-115.3223 -57.8709
" />
<path d="M-115.3223 -57.8709
L-115.1794 -57.9424
" />
<path d="M-115.1794 -57.9424
L-114.9651 -57.9424
" />
<path d="M-114.9651 -57.9424
L-114.8223 -57.8709
" />
<path d="M-114.8223 -57.8709
L-114.7509 -57.7995
" />
<path d="M-114.7509 -57.7995
L-114.6794 -57.6567
" />
<path d="M-114.6794 -57.6567
L-114.6794 -57.2281
" />
<path d="M-114.6794 -57.2281
L-114.7509 -57.0852
" />
<path d="M-114.7509 -57.0852
L-114.8223 -57.0138
" />
<path d="M-114.8223 -57.0138
L-114.9651 -56.9424
" />
<path d="M-114.9651 -56.9424
L-115.1794 -56.9424
" />
<path d="M-114.0366 -56.9424
L-114.0366 -57.9424
" />
<path d="M-114.0366 -57.6567
L-113.9651 -57.7995
" />
<path d="M-113.9651 -57.7995
L-113.8937 -57.8709
" />
<path d="M-113.8937 -57.8709
L-113.7509 -57.9424
" />
<path d="M-113.7509 -57.9424
L-113.6080 -57.9424
" />
<path d="M-113.1080 -57.0852
L-113.0366 -57.0138
" />
<path d="M-113.0366 -57.0138
L-113.1080 -56.9424
" />
<path d="M-113.1080 -56.9424
L-113.1794 -57.0138
" />
<path d="M-113.1794 -57.0138
L-113.1080 -57.0852
" />
<path d="M-113.1080 -57.0852
L-113.1080 -56.9424
" />
<path d="M-112.3937 -56.9424
L-112.3937 -58.4424
" />
<path d="M-112.2509 -57.5138
L-111.8223 -56.9424
" />
<path d="M-111.8223 -57.9424
L-112.3937 -57.3709
" />
<path d="M-111.1794 -56.9424
L-111.1794 -57.9424
" />
<path d="M-111.1794 -58.4424
L-111.2509 -58.3709
" />
<path d="M-111.2509 -58.3709
L-111.1794 -58.2995
" />
<path d="M-111.1794 -58.2995
L-111.1080 -58.3709
" />
<path d="M-111.1080 -58.3709
L-111.1794 -58.4424
" />
<path d="M-111.1794 -58.4424
L-111.1794 -58.2995
" />
<path d="M-109.8223 -57.0138
L-109.9651 -56.9424
" />
<path d="M-109.9651 -56.9424
L-110.2509 -56.9424
" />
<path d="M-110.2509 -56.9424
L-110.3937 -57.0138
" />
<path d="M-110.3937 -57.0138
L-110.4651 -57.0852
" />
<path d="M-110.4651 -57.0852
L-110.5366 -57.2281
" />
<path d="M-110.5366 -57.2281
L-110.5366 -57.6567
" />
<path d="M-110.5366 -57.6567
L-110.4651 -57.7995
" />
<path d="M-110.4651 -57.7995
L-110.3937 -57.8709
" />
<path d="M-110.3937 -57.8709
L-110.2509 -57.9424
" />
<path d="M-110.2509 -57.9424
L-109.9651 -57.9424
" />
<path d="M-109.9651 -57.9424
L-109.8223 -57.8709
" />
<path d="M-108.5366 -56.9424
L-108.5366 -57.7281
" />
<path d="M-108.5366 -57.7281
L-108.6080 -57.8709
" />
<path d="M-108.6080 -57.8709
L-108.7509 -57.9424
" />
<path d="M-108.7509 -57.9424
L-109.0366 -57.9424
" />
<path d="M-109.0366 -57.9424
L-109.1794 -57.8709
" />
<path d="M-108.5366 -57.0138
L-108.6794 -56.9424
" />
<path d="M-108.6794 -56.9424
L-109.0366 -56.9424
" />
<path d="M-109.0366 -56.9424
L-109.1794 -57.0138
" />
<path d="M-109.1794 -57.0138
L-109.2509 -57.1567
" />
<path d="M-109.2509 -57.1567
L-109.2509 -57.2995
" />
<path d="M-109.2509 -57.2995
L-109.1794 -57.4424
" />
<path d="M-109.1794 -57.4424
L-109.0366 -57.5138
" />
<path d="M-109.0366 -57.5138
L-108.6794 -57.5138
" />
<path d="M-108.6794 -57.5138
L-108.5366 -57.5852
" />
<path d="M-107.1794 -56.9424
L-107.1794 -58.4424
" />
<path d="M-107.1794 -57.0138
L-107.3223 -56.9424
" />
<path d="M-107.3223 -56.9424
L-107.6080 -56.9424
" />
<path d="M-107.6080 -56.9424
L-107.7509 -57.0138
" />
<path d="M-107.7509 -57.0138
L-107.8223 -57.0852
" />
<path d="M-107.8223 -57.0852
L-107.8937 -57.2281
" />
<path d="M-107.8937 -57.2281
L-107.8937 -57.6567
" />
<path d="M-107.8937 -57.6567
L-107.8223 -57.7995
" />
<path d="M-107.8223 -57.7995
L-107.7509 -57.8709
" />
<path d="M-107.7509 -57.8709
L-107.6080 -57.9424
" />
<path d="M-107.6080 -57.9424
L-107.3223 -57.9424
" />
<path d="M-107.3223 -57.9424
L-107.1794 -57.8709
" />
<path d="M-106.8223 -56.7995
L-105.6794 -56.7995
" />
<path d="M-105.3223 -57.9424
L-105.3223 -56.4424
" />
<path d="M-105.3223 -57.8709
L-105.1794 -57.9424
" />
<path d="M-105.1794 -57.9424
L-104.8937 -57.9424
" />
<path d="M-104.8937 -57.9424
L-104.7509 -57.8709
" />
<path d="M-104.7509 -57.8709
L-104.6794 -57.7995
" />
<path d="M-104.6794 -57.7995
L-104.6080 -57.6567
" />
<path d="M-104.6080 -57.6567
L-104.6080 -57.2281
" />
<path d="M-104.6080 -57.2281
L-104.6794 -57.0852
" />
<path d="M-104.6794 -57.0852
L-104.7509 -57.0138
" />
<path d="M-104.7509 -57.0138
L-104.8937 -56.9424
" />
<path d="M-104.8937 -56.9424
L-105.1794 -56.9424
" />
<path d="M-105.1794 -56.9424
L-105.3223 -57.0138
" />
<path d="M-103.3223 -57.0138
L-103.4651 -56.9424
" />
<path d="M-103.4651 -56.9424
L-103.7509 -56.9424
" />
<path d="M-103.7509 -56.9424
L-103.8937 -57.0138
" />
<path d="M-103.8937 -57.0138
L-103.9651 -57.0852
" />
<path d="M-103.9651 -57.0852
L-104.0366 -57.2281
" />
<path d="M-104.0366 -57.2281
L-104.0366 -57.6567
" />
<path d="M-104.0366 -57.6567
L-103.9651 -57.7995
" />
<path d="M-103.9651 -57.7995
L-103.8937 -57.8709
" />
<path d="M-103.8937 -57.8709
L-103.7509 -57.9424
" />
<path d="M-103.7509 -57.9424
L-103.4651 -57.9424
" />
<path d="M-103.4651 -57.9424
L-103.3223 -57.8709
" />
<path d="M-102.6794 -56.9424
L-102.6794 -58.4424
" />
<path d="M-102.6794 -57.8709
L-102.5366 -57.9424
" />
<path d="M-102.5366 -57.9424
L-102.2509 -57.9424
" />
<path d="M-102.2509 -57.9424
L-102.1080 -57.8709
" />
<path d="M-102.1080 -57.8709
L-102.0366 -57.7995
" />
<path d="M-102.0366 -57.7995
L-101.9651 -57.6567
" />
<path d="M-101.9651 -57.6567
L-101.9651 -57.2281
" />
<path d="M-101.9651 -57.2281
L-102.0366 -57.0852
" />
<path d="M-102.0366 -57.0852
L-102.1080 -57.0138
" />
<path d="M-102.1080 -57.0138
L-102.2509 -56.9424
" />
<path d="M-102.2509 -56.9424
L-102.5366 -56.9424
" />
<path d="M-102.5366 -56.9424
L-102.6794 -57.0138
" />
</g></g>
<g style="fill:none; 
stroke:#C872AB; stroke-width:0.1500; stroke-opacity:1; 
stroke-linecap:round; stroke-linejoin:round;">
<path d="M-136.6352 -61.8285
L-28.6352 -61.8285
" />
</g>
<g style="fill:none; 
stroke:#C872AB; stroke-width:0.1500; stroke-opacity:1; 
stroke-linecap:round; stroke-linejoin:round;">
<text x="-135.6352" y="-59.5785"
textLength="8.2214" font-size="2.0000" lengthAdjust="spacingAndGlyphs"
text-anchor="start" opacity="0" stroke-opacity="0">Sheet: </text>
<g class="stroked-text"><desc>Sheet: </desc>
<path d="M-135.2509 -59.7138
L-135.0366 -59.6424
" />
<path d="M-135.0366 -59.6424
L-134.6794 -59.6424
" />
<path d="M-134.6794 -59.6424
L-134.5366 -59.7138
" />
<path d="M-134.5366 -59.7138
L-134.4651 -59.7852
" />
<path d="M-134.4651 -59.7852
L-134.3937 -59.9281
" />
<path d="M-134.3937 -59.9281
L-134.3937 -60.0709
" />
<path d="M-134.3937 -60.0709
L-134.4651 -60.2138
" />
<path d="M-134.4651 -60.2138
L-134.5366 -60.2852
" />
<path d="M-134.5366 -60.2852
L-134.6794 -60.3567
" />
<path d="M-134.6794 -60.3567
L-134.9651 -60.4281
" />
<path d="M-134.9651 -60.4281
L-135.1080 -60.4995
" />
<path d="M-135.1080 -60.4995
L-135.1794 -60.5709
" />
<path d="M-135.1794 -60.5709
L-135.2509 -60.7138
" />
<path d="M-135.2509 -60.7138
L-135.2509 -60.8567
" />
<path d="M-135.2509 -60.8567
L-135.1794 -60.9995
" />
<path d="M-135.1794 -60.9995
L-135.1080 -61.0709
" />
<path d="M-135.1080 -61.0709
L-134.9651 -61.1424
" />
<path d="M-134.9651 -61.1424
L-134.6080 -61.1424
" />
<path d="M-134.6080 -61.1424
L-134.3937 -61.0709
" />
<path d="M-133.7509 -59.6424
L-133.7509 -61.1424
" />
<path d="M-133.1080 -59.6424
L-133.1080 -60.4281
" />
<path d="M-133.1080 -60.4281
L-133.1794 -60.5709
" />
<path d="M-133.1794 -60.5709
L-133.3223 -60.6424
" />
<path d="M-133.3223 -60.6424
L-133.5366 -60.6424
" />
<path d="M-133.5366 -60.6424
L-133.6794 -60.5709
" />
<path d="M-133.6794 -60.5709
L-133.7509 -60.4995
" />
<path d="M-131.8223 -59.7138
L-131.9651 -59.6424
" />
<path d="M-131.9651 -59.6424
L-132.2509 -59.6424
" />
<path d="M-132.2509 -59.6424
L-132.3937 -59.7138
" />
<path d="M-132.3937 -59.7138
L-132.4651 -59.8567
" />
<path d="M-132.4651 -59.8567
L-132.4651 -60.4281
" />
<path d="M-132.4651 -60.4281
L-132.3937 -60.5709
" />
<path d="M-132.3937 -60.5709
L-132.2509 -60.6424
" />
<path d="M-132.2509 -60.6424
L-131.9651 -60.6424
" />
<path d="M-131.9651 -60.6424
L-131.8223 -60.5709
" />
<path d="M-131.8223 -60.5709
L-131.7509 -60.4281
" />
<path d="M-131.7509 -60.4281
L-131.7509 -60.2852
" />
<path d="M-131.7509 -60.2852
L-132.4651 -60.1424
" />
<path d="M-130.5366 -59.7138
L-130.6794 -59.6424
" />
<path d="M-130.6794 -59.6424
L-130.9651 -59.6424
" />
<path d="M-130.9651 -59.6424
L-131.1080 -59.7138
" />
<path d="M-131.1080 -59.7138
L-131.1794 -59.8567
" />
<path d="M-131.1794 -59.8567
L-131.1794 -60.4281
" />
<path d="M-131.1794 -60.4281
L-131.1080 -60.5709
" />
<path d="M-131.1080 -60.5709
L-130.9651 -60.6424
" />
<path d="M-130.9651 -60.6424
L-130.6794 -60.6424
" />
<path d="M-130.6794 -60.6424
L-130.5366 -60.5709
" />
<path d="M-130.5366 -60.5709
L-130.4651 -60.4281
" />
<path d="M-130.4651 -60.4281
L-130.4651 -60.2852
" />
<path d="M-130.4651 -60.2852
L-131.1794 -60.1424
" />
<path d="M-130.0366 -60.6424
L-129.4651 -60.6424
" />
<path d="M-129.8223 -61.1424
L-129.8223 -59.8567
" />
<path d="M-129.8223 -59.8567
L-129.7509 -59.7138
" />
<path d="M-129.7509 -59.7138
L-129.6080 -59.6424
" />
<path d="M-129.6080 -59.6424
L-129.4651 -59.6424
" />
<path d="M-128.9651 -59.7852
L-128.8937 -59.7138
" />
<path d="M-128.8937 -59.7138
L-128.9651 -59.6424
" />
<path d="M-128.9651 -59.6424
L-129.0366 -59.7138
" />
<path d="M-129.0366 -59.7138
L-128.9651 -59.7852
" />
<path d="M-128.9651 -59.7852
L-128.9651 -59.6424
" />
<path d="M-128.9651 -60.5709
L-128.8937 -60.4995
" />
<path d="M-128.8937 -60.4995
L-128.9651 -60.4281
" />
<path d="M-128.9651 -60.4281
L-129.0366 -60.4995
" />
<path d="M-129.0366 -60.4995
L-128.9651 -60.5709
" />
<path d="M-128.9651 -60.5709
L-128.9651 -60.4281
" />
</g></g>
<g style="fill:none; 
stroke:#C872AB; stroke-width:0.3000; stroke-opacity:1; 
stroke-linecap:round; stroke-linejoin:round;">
<text x="-135.6352" y="-62.5785"
textLength="0.9000" font-size="2.0000" lengthAdjust="spacingAndGlyphs"
text-anchor="start" opacity="0" stroke-opacity="0"></text>
<g class="stroked-text"><desc></desc>
</g></g>
<g style="fill:none; 
stroke:#C872AB; stroke-width:0.1500; stroke-opacity:1; 
stroke-linecap:round; stroke-linejoin:round;">
<text x="-135.6352" y="-65.5785"
textLength="0.4500" font-size="2.0000" lengthAdjust="spacingAndGlyphs"
text-anchor="start" opacity="0" stroke-opacity="0"></text>
<g class="stroked-text"><desc></desc>
</g></g>
<g style="fill:none; 
stroke:#C872AB; stroke-width:0.1500; stroke-opacity:1; 
stroke-linecap:round; stroke-linejoin:round;">
<text x="-135.6352" y="-68.5785"
textLength="0.4500" font-size="2.0000" lengthAdjust="spacingAndGlyphs"
text-anchor="start" opacity="0" stroke-opacity="0"></text>
<g class="stroked-text"><desc></desc>
</g></g>
<g style="fill:none; 
stroke:#C872AB; stroke-width:0.1500; stroke-opacity:1; 
stroke-linecap:round; stroke-linejoin:round;">
<text x="-135.6352" y="-71.5785"
textLength="0.4500" font-size="2.0000" lengthAdjust="spacingAndGlyphs"
text-anchor="start" opacity="0" stroke-opacity="0"></text>
<g class="stroked-text"><desc></desc>
</g></g>
<g style="fill:none; 
stroke:#C872AB; stroke-width:0.1500; stroke-opacity:1; 
stroke-linecap:round; stroke-linejoin:round;">
<text x="-135.6352" y="-74.5785"
textLength="0.4500" font-size="2.0000" lengthAdjust="spacingAndGlyphs"
text-anchor="start" opacity="0" stroke-opacity="0"></text>
<g class="stroked-text"><desc></desc>
</g></g>
<g style="fill:none; 
stroke:#C872AB; stroke-width:0.1500; stroke-opacity:1; 
stroke-linecap:round; stroke-linejoin:round;">
<path d="M-116.6352 -51.8285
L-116.6352 -48.8285
" />
</g>
<g style="fill:none; 
stroke:#C872AB; stroke-width:0.1500; stroke-opacity:1; 
stroke-linecap:round; stroke-linejoin:round;">
<path d="M-52.6352 -51.8285
L-52.6352 -45.3285
" />
<path style="fill:#C83434; fill-opacity:1.0000; stroke:none;fill-rule:evenodd;"
d="M 23.1382,37.4982
22.6382,37.4982
22.6382,37.4940
22.5730,37.4940
22.4469,37.4602
22.3339,37.3949
22.2416,37.3026
22.1763,37.1896
22.1425,37.0635
22.1425,36.9982
22.1382,36.9982
22.1382,36.4982
22.1425,36.4982
22.1425,36.4330
22.1763,36.3069
22.2416,36.1939
22.3339,36.1016
22.4469,36.0363
22.5730,36.0025
22.6382,36.0025
22.6382,35.9982
23.1382,35.9982
Z" /> 
<path style="fill:#C83434; fill-opacity:1.0000; stroke:none;fill-rule:evenodd;"
d="M 23.9383,36.0025
24.0035,36.0025
24.1296,36.0363
24.2426,36.1016
24.3349,36.1939
24.4002,36.3069
24.4340,36.4330
24.4340,36.4982
24.4383,36.4982
24.4383,36.9982
24.4340,36.9982
24.4340,37.0635
24.4002,37.1896
24.3349,37.3026
24.2426,37.3949
24.1296,37.4602
24.0035,37.4940
23.9383,37.4940
23.9383,37.4982
23.4383,37.4982
23.4383,35.9982
23.9383,35.9982
Z" /> 
<path style="fill:#C83434; fill-opacity:1.0000; stroke:none;fill-rule:evenodd;"
d="M 37.5882,27.1482
37.5882,25.4482
38.7882,25.4482
38.7882,27.1482
Z" /> 
<path style="fill:#C83434; fill-opacity:1.0000; stroke:none;fill-rule:evenodd;"
d="M 40.7882,27.1482
40.7882,25.4482
41.9883,25.4482
41.9883,27.1482
Z" /> 
<path style="fill:#C83434; fill-opacity:1.0000; stroke:none;fill-rule:evenodd;"
d="M 22.8382,30.8483
24.5382,30.8483
24.5382,32.0482
22.8382,32.0482
Z" /> 
<path style="fill:#C83434; fill-opacity:1.0000; stroke:none;fill-rule:evenodd;"
d="M 22.8382,34.0482
24.5382,34.0482
24.5382,35.2482
22.8382,35.2482
Z" /> 
</g>
<g style="fill:#C83434; fill-opacity:1.0000; stroke:none;">
<circle cx="17.8682" cy="17.0482" r="2.0000" /> 
</g>
<g style="fill:#C83434; fill-opacity:1.0000; stroke:none;">
<circle cx="17.8682" cy="42.0482" r="2.0000" /> 
<path style="fill:#C83434; fill-opacity:1.0000; stroke:none;fill-rule:evenodd;"
d="M 18.4883,23.2082
20.0882,23.2082
20.0882,24.8082
18.4883,24.8082
Z" /> 
</g>
<g style="fill:#C83434; fill-opacity:1.0000; stroke:none;">
<circle cx="19.2882" cy="26.7782" r="0.8000" /> 
</g>
<g style="fill:#C83434; fill-opacity:1.0000; stroke:none;">
<circle cx="19.2882" cy="29.5482" r="0.8000" /> 
</g>
<g style="fill:#C83434; fill-opacity:1.0000; stroke:none;">
<circle cx="19.2882" cy="32.3182" r="0.8000" /> 
</g>
<g style="fill:#C83434; fill-opacity:1.0000; stroke:none;">
<circle cx="19.2882" cy="35.0882" r="0.8000" /> 
</g>
<g style="fill:#C83434; fill-opacity:1.0000; stroke:none;">
<circle cx="16.4482" cy="25.3932" r="0.8000" /> 
</g>
<g style="fill:#C83434; fill-opacity:1.0000; stroke:none;">
<circle cx="16.4482" cy="28.1632" r="0.8000" /> 
</g>
<g style="fill:#C83434; fill-opacity:1.0000; stroke:none;">
<circle cx="16.4482" cy="30.9332" r="0.8000" /> 
</g>
<g style="fill:#C83434; fill-opacity:1.0000; stroke:none;">
<circle cx="16.4482" cy="33.7032" r="0.8000" /> 
<path style="fill:#C83434; fill-opacity:1.0000; stroke:none;fill-rule:evenodd;"
d="M 63.4382,21.5983
63.9382,21.5983
63.9382,21.6025
64.0035,21.6025
64.1296,21.6363
64.2426,21.7016
64.3349,21.7939
64.4002,21.9069
64.4340,22.0330
64.4340,22.0983
64.4382,22.0983
64.4382,22.5983
64.4340,22.5983
64.4340,22.6635
64.4002,22.7896
64.3349,22.9026
64.2426,22.9949
64.1296,23.0602
64.0035,23.0940
63.9382,23.0940
63.9382,23.0983
63.4382,23.0983
Z" /> 
<path style="fill:#C83434; fill-opacity:1.0000; stroke:none;fill-rule:evenodd;"
d="M 62.6382,23.0940
62.5730,23.0940
62.4469,23.0602
62.3339,22.9949
62.2416,22.9026
62.1763,22.7896
62.1425,22.6635
62.1425,22.5983
62.1382,22.5983
62.1382,22.0983
62.1425,22.0983
62.1425,22.0330
62.1763,21.9069
62.2416,21.7939
62.3339,21.7016
62.4469,21.6363
62.5730,21.6025
62.6382,21.6025
62.6382,21.5983
63.1382,21.5983
63.1382,23.0983
62.6382,23.0983
Z" /> 
<path style="fill:#C83434; fill-opacity:1.0000; stroke:none;fill-rule:evenodd;"
d="M 24.5382,28.2482
22.8382,28.2482
22.8382,27.0482
24.5382,27.0482
Z" /> 
<path style="fill:#C83434; fill-opacity:1.0000; stroke:none;fill-rule:evenodd;"
d="M 24.5382,25.0482
22.8382,25.0482
22.8382,23.8483
24.5382,23.8483
Z" /> 
</g>
<g style="fill:#C83434; fill-opacity:1.0000; stroke:none;">
<circle cx="68.7082" cy="42.0482" r="2.0000" /> 
</g>
<g style="fill:#C83434; fill-opacity:1.0000; stroke:none;">
<circle cx="68.7082" cy="17.0482" r="2.0000" /> 
<path style="fill:#C83434; fill-opacity:1.0000; stroke:none;fill-rule:evenodd;"
d="M 68.0883,35.8882
66.4882,35.8882
66.4882,34.2882
68.0883,34.2882
Z" /> 
</g>
<g style="fill:#C83434; fill-opacity:1.0000; stroke:none;">
<circle cx="67.2882" cy="32.3182" r="0.8000" /> 
</g>
<g style="fill:#C83434; fill-opacity:1.0000; stroke:none;">
<circle cx="67.2882" cy="29.5482" r="0.8000" /> 
</g>
<g style="fill:#C83434; fill-opacity:1.0000; stroke:none;">
<circle cx="67.2882" cy="26.7782" r="0.8000" /> 
</g>
<g style="fill:#C83434; fill-opacity:1.0000; stroke:none;">
<circle cx="67.2882" cy="24.0083" r="0.8000" /> 
</g>
<g style="fill:#C83434; fill-opacity:1.0000; stroke:none;">
<circle cx="70.1282" cy="33.7032" r="0.8000" /> 
</g>
<g style="fill:#C83434; fill-opacity:1.0000; stroke:none;">
<circle cx="70.1282" cy="30.9332" r="0.8000" /> 
</g>
<g style="fill:#C83434; fill-opacity:1.0000; stroke:none;">
<circle cx="70.1282" cy="28.1632" r="0.8000" /> 
</g>
<g style="fill:#C83434; fill-opacity:1.0000; stroke:none;">
<circle cx="70.1282" cy="25.3932" r="0.8000" /> 
</g>
<g style="fill:#C83434; fill-opacity:1.0000; stroke:none;">
<circle cx="55.7882" cy="19.4786" r="2.0000" /> 
</g>
<g style="fill:#C83434; fill-opacity:1.0000; stroke:none;">
<circle cx="30.7882" cy="19.4786" r="2.0000" /> 
<path style="fill:#C83434; fill-opacity:1.0000; stroke:none;fill-rule:evenodd;"
d="M 49.6282,20.0986
49.6282,21.6986
48.0282,21.6986
48.0282,20.0986
Z" /> 
</g>
<g style="fill:#C83434; fill-opacity:1.0000; stroke:none;">
<circle cx="46.0583" cy="20.8986" r="0.8000" /> 
</g>
<g style="fill:#C83434; fill-opacity:1.0000; stroke:none;">
<circle cx="43.2882" cy="20.8986" r="0.8000" /> 
</g>
<g style="fill:#C83434; fill-opacity:1.0000; stroke:none;">
<circle cx="40.5182" cy="20.8986" r="0.8000" /> 
</g>
<g style="fill:#C83434; fill-opacity:1.0000; stroke:none;">
<circle cx="37.7482" cy="20.8986" r="0.8000" /> 
</g>
<g style="fill:#C83434; fill-opacity:1.0000; stroke:none;">
<circle cx="47.4432" cy="18.0586" r="0.8000" /> 
</g>
<g style="fill:#C83434; fill-opacity:1.0000; stroke:none;">
<circle cx="44.6732" cy="18.0586" r="0.8000" /> 
</g>
<g style="fill:#C83434; fill-opacity:1.0000; stroke:none;">
<circle cx="41.9032" cy="18.0586" r="0.8000" /> 
</g>
<g style="fill:#C83434; fill-opacity:1.0000; stroke:none;">
<circle cx="39.1332" cy="18.0586" r="0.8000" /> 
<path style="fill:#C83434; fill-opacity:1.0000; stroke:none;fill-rule:evenodd;"
d="M 48.9883,25.4482
48.9883,27.1482
47.7882,27.1482
47.7882,25.4482
Z" /> 
<path style="fill:#C83434; fill-opacity:1.0000; stroke:none;fill-rule:evenodd;"
d="M 45.7882,25.4482
45.7882,27.1482
44.5882,27.1482
44.5882,25.4482
Z" /> 
<path style="fill:#C83434; fill-opacity:1.0000; stroke:none;fill-rule:evenodd;"
d="M 62.0382,23.8483
63.7382,23.8483
63.7382,25.0482
62.0382,25.0482
Z" /> 
<path style="fill:#C83434; fill-opacity:1.0000; stroke:none;fill-rule:evenodd;"
d="M 62.0382,27.0482
63.7382,27.0482
63.7382,28.2482
62.0382,28.2482
Z" /> 
<path style="fill:#C83434; fill-opacity:1.0000; stroke:none;fill-rule:evenodd;"
d="M 63.7382,35.2482
62.0382,35.2482
62.0382,34.0482
63.7382,34.0482
Z" /> 
<path style="fill:#C83434; fill-opacity:1.0000; stroke:none;fill-rule:evenodd;"
d="M 63.7382,32.0482
62.0382,32.0482
62.0382,30.8483
63.7382,30.8483
Z" /> 
</g>
<g style="fill:#C83434; fill-opacity:1.0000; stroke:none;">
<circle cx="40.7882" cy="24.0482" r="0.2250" /> 
</g>
<g style="fill:#C83434; fill-opacity:1.0000; stroke:none;">
<circle cx="43.2882" cy="24.0482" r="0.2250" /> 
</g>
<g style="fill:#C83434; fill-opacity:1.0000; stroke:none;">
<circle cx="45.7882" cy="24.0482" r="0.2250" /> 
</g>
<g style="fill:#C83434; fill-opacity:1.0000; stroke:none;">
<circle cx="61.8882" cy="22.3483" r="0.2250" /> 
</g>
<g style="fill:#C83434; fill-opacity:1.0000; stroke:none;">
<circle cx="24.6883" cy="36.7482" r="0.2250" /> 
</g>
<g style="fill:#C83434; fill-opacity:1.0000; stroke:none;">
<circle cx="41.3882" cy="26.2982" r="0.2250" /> 
</g>
<g style="fill:#C83434; fill-opacity:1.0000; stroke:none;">
<circle cx="39.1172" cy="28.7482" r="0.2250" /> 
</g>
<g style="fill:#C83434; fill-opacity:1.0000; stroke:none;">
<circle cx="45.1882" cy="26.2982" r="0.2250" /> 
</g>
<g style="fill:#C83434; fill-opacity:1.0000; stroke:none;">
<circle cx="40.4482" cy="28.7482" r="0.2250" /> 
</g>
<g style="fill:#C83434; fill-opacity:1.0000; stroke:none;">
<circle cx="39.1172" cy="29.4482" r="0.2250" /> 
</g>
<g style="fill:#C83434; fill-opacity:1.0000; stroke:none;">
<circle cx="40.4482" cy="29.4482" r="0.2250" /> 
</g>
<g style="fill:#C83434; fill-opacity:1.0000; stroke:none;">
<circle cx="48.3882" cy="26.2982" r="0.2250" /> 
</g>
<g style="fill:#C83434; fill-opacity:1.0000; stroke:none;">
<circle cx="38.1882" cy="26.2982" r="0.2250" /> 
</g>
<g style="fill:none; 
stroke:#C83434; stroke-width:1.6000; stroke-opacity:1; 
stroke-linecap:round; stroke-linejoin:round;">
<path d="M50.8382 19.7482
L50.8382 16.0983
" />
<path d="M67.2882 36.0482
L67.8882 36.6482
" />
<path d="M48.8282 20.8986
L49.6879 20.8986
" />
<path d="M49.6879 20.8986
L50.8382 19.7482
" />
<path d="M39.1382 16.0983
L25.1883 16.0983
" />
<path d="M67.2882 35.0882
L67.2882 36.0482
" />
<path d="M39.1332 16.1032
L39.1382 16.0983
" />
<path d="M16.4482 33.7032
L14.6382 31.8932
" />
<path d="M14.6382 24.5482
L17.1883 21.9982
" />
<path d="M50.8382 16.0983
L51.6882 16.0983
" />
<path d="M67.8882 36.6482
L69.7882 36.6482
" />
<path d="M69.7882 36.6482
L71.9382 34.4982
" />
<path d="M17.1883 21.9982
L19.2882 21.9982
" />
<path d="M39.1382 16.0983
L41.0936 16.0983
" />
<path d="M71.9382 24.5482
L63.4882 16.0983
" />
<path d="M63.4882 16.0983
L51.6882 16.0983
" />
<path d="M70.0883 25.3532
L70.1282 25.3932
" />
<path d="M19.2882 24.0083
L19.2882 21.9982
" />
<path d="M25.1883 16.0983
L19.2882 21.9982
" />
<path d="M71.0932 25.3932
L71.9382 24.5482
" />
<path d="M71.9382 34.4982
L71.9382 24.5482
" />
<path d="M41.0936 16.0983
L51.6882 16.0983
" />
<path d="M39.1332 18.0586
L39.1332 16.1032
" />
<path d="M14.6382 31.8932
L14.6382 24.5482
" />
<path d="M70.1282 25.3932
L71.0932 25.3932
" />
</g>
<g style="fill:none; 
stroke:#C83434; stroke-width:0.4500; stroke-opacity:1; 
stroke-linecap:round; stroke-linejoin:round;">
<path d="M40.7882 24.0482
L45.7882 24.0482
" />
<path d="M46.0036 19.4982
L47.4432 18.0586
" />
<path d="M44.6886 19.4982
L46.0036 19.4982
" />
</g>
<g style="fill:none; 
stroke:#C83434; stroke-width:1.0000; stroke-opacity:1; 
stroke-linecap:round; stroke-linejoin:round;">
<path d="M62.6382 22.3483
L61.8882 22.3483
" />
</g>
<g style="fill:none; 
stroke:#C83434; stroke-width:0.4500; stroke-opacity:1; 
stroke-linecap:round; stroke-linejoin:round;">
<path d="M43.2882 20.8986
L44.6886 19.4982
" />
</g>
<g style="fill:none; 
stroke:#C83434; stroke-width:1.0000; stroke-opacity:1; 
stroke-linecap:round; stroke-linejoin:round;">
<path d="M23.9383 36.7482
L24.6883 36.7482
" />
</g>
<g style="fill:none; 
stroke:#C83434; stroke-width:0.1600; stroke-opacity:1; 
stroke-linecap:round; stroke-linejoin:round;">
<path d="M39.9492 30.0872
L39.9492 27.9872
" />
<path d="M41.3882 26.0482
L40.7882 25.4482
" />
<path d="M70.1282 28.1632
L63.4032 28.1632
" />
<path d="M16.4482 30.9582
L19.0882 33.5983
" />
<path d="M40.8282 22.9482
L52.4382 22.9482
" />
<path d="M23.6883 34.6482
L23.9383 34.6482
" />
<path d="M23.9383 34.6482
L25.3773 33.2092
" />
<path d="M40.8988 24.8738
L40.8408 24.8159
" />
<path d="M36.8272 33.2092
L39.9492 30.0872
" />
<path d="M63.4032 28.1632
L62.8882 27.6482
" />
<path d="M40.6089 24.8159
L40.4983 24.9264
" />
<path d="M55.7432 26.2532
L61.2432 26.2532
" />
<path d="M23.4383 34.6482
L23.6883 34.6482
" />
<path d="M39.9932 23.7832
L40.8282 22.9482
" />
<path d="M41.3882 26.5482
L41.3882 26.2982
" />
<path d="M52.4382 22.9482
L55.7432 26.2532
" />
<path d="M16.4482 30.9332
L16.4482 30.9582
" />
<path d="M40.2084 24.8684
L39.9932 24.6532
" />
<path d="M40.2664 24.9264
L40.2084 24.8684
" />
<path d="M19.0882 33.5983
L22.3882 33.5983
" />
<path d="M39.9492 27.9872
L41.3882 26.5482
" />
<path d="M40.7882 25.2163
L40.8988 25.1058
" />
<path d="M25.3773 33.2092
L36.8272 33.2092
" />
<path d="M39.9932 24.6532
L39.9932 23.7832
" />
<path d="M61.2432 26.2532
L62.6382 27.6482
" />
<path d="M22.3882 33.5983
L23.4383 34.6482
" />
<path d="M62.6382 27.6482
L62.8882 27.6482
" />
<path d="M40.8988 25.1058 A0.1640 0.1640 0.0 0 0 40.8988 24.8739" />
<path d="M40.2664 24.9264 A0.1640 0.1640 0.0 0 0 40.4983 24.9264" />
<path d="M40.8408 24.8159 A0.1640 0.1640 0.0 0 0 40.6089 24.8159" />
<path d="M40.7882 25.2163 A0.1640 0.1640 0.0 0 0 40.7882 25.4482" />
<path d="M47.1720 23.5882
L46.6283 24.1320
" />
<path d="M46.3101 27.6701
L46.3681 27.7281
" />
<path d="M16.4482 28.1632
L16.4482 28.1382
" />
<path d="M45.7348 27.6656
L45.7928 27.7235
" />
<path d="M46.1943 28.9382
L46.6272 28.5053
" />
<path d="M63.4032 30.9332
L62.8882 31.4482
" />
<path d="M46.6272 27.9872
L46.6272 28.2177
" />
<path d="M25.3782 25.8882
L23.9383 24.4482
" />
<path d="M70.1282 30.9332
L63.4032 30.9332
" />
<path d="M58.9545 32.8882
L49.6545 23.5882
" />
<path d="M61.1982 32.8882
L58.9545 32.8882
" />
<path d="M46.6283 24.6082
L45.1882 26.0482
" />
<path d="M19.0882 25.4982
L22.3882 25.4982
" />
<path d="M40.4482 28.7482
L40.6382 28.9382
" />
<path d="M45.7882 27.3802
L45.7348 27.4336
" />
<path d="M45.1882 26.5482
L45.7882 27.1482
" />
<path d="M16.4482 28.1382
L19.0882 25.4982
" />
<path d="M38.9273 28.9382
L38.5045 28.9382
" />
<path d="M62.8882 31.4482
L62.6382 31.4482
" />
<path d="M40.6382 28.9382
L46.1943 28.9382
" />
<path d="M46.0247 27.7235
L46.0782 27.6701
" />
<path d="M22.3882 25.4982
L23.4383 24.4482
" />
<path d="M39.1172 28.7482
L38.9273 28.9382
" />
<path d="M49.6545 23.5882
L47.1720 23.5882
" />
<path d="M35.4545 25.8882
L25.3782 25.8882
" />
<path d="M45.1882 26.2982
L45.1882 26.5482
" />
<path d="M46.6272 28.5053
L46.6272 28.2177
" />
<path d="M38.5045 28.9382
L35.4545 25.8882
" />
<path d="M46.3681 27.7281
L46.6272 27.9872
" />
<path d="M23.4383 24.4482
L23.6883 24.4482
" />
<path d="M62.6382 31.4482
L61.1982 32.8882
" />
<path d="M46.6283 24.1320
L46.6283 24.6082
" />
<path d="M23.9383 24.4482
L23.6883 24.4482
" />
<path d="M46.3101 27.6701 A0.1640 0.1640 0.0 0 0 46.0782 27.6701" />
<path d="M45.7883 27.3802 A0.1640 0.1640 0.0 0 0 45.7882 27.1483" />
<path d="M45.7348 27.4336 A0.1640 0.1640 0.0 0 0 45.7348 27.6655" />
<path d="M45.7928 27.7235 A0.1640 0.1640 0.0 0 0 46.0247 27.7235" />
<path d="M66.2242 31.2542
L64.5072 31.2542
" />
<path d="M64.5072 31.2542
L63.9882 31.7732
" />
<path d="M49.5220 23.9082
L47.3045 23.9082
" />
<path d="M46.9482 28.6382
L46.9482 27.9882
" />
<path d="M48.3882 26.5482
L48.3882 26.2982
" />
<path d="M47.2584 24.9184
L47.0298 24.6898
" />
<path d="M21.6862 26.0323
L21.7682 26.0323
" />
<path d="M47.8382 25.2663
L47.8905 25.2141
" />
<path d="M46.3282 29.2583
L46.9482 28.6382
" />
<path d="M47.8905 24.9821
L47.8325 24.9242
" />
<path d="M67.2882 32.3182
L66.2242 31.2542
" />
<path d="M40.4482 29.4482
L40.6382 29.2583
" />
<path d="M21.5222 26.6142
L21.5222 26.1963
" />
<path d="M63.9882 31.7732
L63.9882 33.7982
" />
<path d="M62.8882 34.6482
L62.6382 34.6482
" />
<path d="M62.6382 34.6482
L61.1982 33.2082
" />
<path d="M46.9482 24.6082
L47.0298 24.6898
" />
<path d="M23.9383 27.6482
L23.6883 27.6482
" />
<path d="M23.4383 27.6482
L23.6883 27.6482
" />
<path d="M22.5682 26.7782
L23.4383 27.6482
" />
<path d="M39.1172 29.4482
L38.9273 29.2583
" />
<path d="M22.1782 26.7782
L22.5682 26.7782
" />
<path d="M20.7022 26.6142
L20.7022 26.1963
" />
<path d="M46.9482 27.9882
L48.3882 26.5482
" />
<path d="M21.9322 26.1963
L21.9322 26.6142
" />
<path d="M21.2762 27.5742
L21.3582 27.5742
" />
<path d="M63.1382 34.6482
L62.8882 34.6482
" />
<path d="M40.6382 29.2583
L46.3282 29.2583
" />
<path d="M63.9882 33.7982
L63.1382 34.6482
" />
<path d="M21.5222 27.4102
L21.5222 26.7782
" />
<path d="M21.1122 26.1963
L21.1122 26.6142
" />
<path d="M58.8220 33.2082
L49.5220 23.9082
" />
<path d="M21.1122 26.6142
L21.1122 26.7782
" />
<path d="M46.9482 24.2645
L46.9482 24.6082
" />
<path d="M48.3882 26.0482
L47.8382 25.4982
" />
<path d="M25.3782 26.2082
L23.9383 27.6482
" />
<path d="M22.0962 26.7782
L22.1782 26.7782
" />
<path d="M38.3720 29.2583
L35.3220 26.2082
" />
<path d="M47.6006 24.9242
L47.5483 24.9764
" />
<path d="M47.3045 23.9082
L46.9482 24.2645
" />
<path d="M61.1982 33.2082
L58.8220 33.2082
" />
<path d="M35.3220 26.2082
L25.3782 26.2082
" />
<path d="M21.5222 26.7782
L21.5222 26.6142
" />
<path d="M19.2882 26.7782
L20.5382 26.7782
" />
<path d="M47.3164 24.9764
L47.2584 24.9184
" />
<path d="M38.9273 29.2583
L38.3720 29.2583
" />
<path d="M21.1122 26.7782
L21.1122 27.4102
" />
<path d="M20.8662 26.0323
L20.9482 26.0323
" />
<path d="M47.8905 25.2141 A0.1640 0.1640 0.0 0 0 47.8905 24.9822" />
<path d="M21.3582 27.5742 A0.1640 0.1640 0.0 0 0 21.5222 27.4102" />
<path d="M47.8325 24.9242 A0.1640 0.1640 0.0 0 0 47.6006 24.9242" />
<path d="M47.3164 24.9764 A0.1640 0.1640 0.0 0 0 47.5483 24.9764" />
<path d="M21.1122 26.1963 A0.1640 0.1640 0.0 0 0 20.9482 26.0323" />
<path d="M20.5382 26.7782 A0.1640 0.1640 0.0 0 0 20.7022 26.6142" />
<path d="M20.8662 26.0322 A0.1640 0.1640 0.0 0 0 20.7022 26.1963" />
<path d="M21.1122 27.4102 A0.1640 0.1640 0.0 0 0 21.2762 27.5743" />
<path d="M21.9322 26.1963 A0.1640 0.1640 0.0 0 0 21.7682 26.0323" />
<path d="M21.6862 26.0322 A0.1640 0.1640 0.0 0 0 21.5222 26.1963" />
<path d="M21.9322 26.6142 A0.1640 0.1640 0.0 0 0 22.0962 26.7782" />
<path d="M47.8382 25.2663 A0.1640 0.1640 0.0 0 0 47.8382 25.4982" />
<path d="M19.2882 32.3182
L20.5382 32.3182
" />
<path d="M22.5682 32.3182
L23.4383 31.4482
" />
<path d="M23.4383 31.4482
L23.6883 31.4482
" />
<path d="M21.5222 31.6867
L21.5222 32.3182
" />
<path d="M23.6883 31.4482
L23.9383 31.4482
" />
<path d="M39.0201 27.7282
L39.0782 27.6701
" />
<path d="M21.1122 32.3182
L21.1122 31.6867
" />
<path d="M21.9322 32.8998
L21.9322 32.4823
" />
<path d="M62.6382 24.4482
L62.8882 24.4482
" />
<path d="M20.8662 33.0638
L20.9482 33.0638
" />
<path d="M63.9882 27.3232
L63.9882 25.2982
" />
<path d="M38.1882 26.0482
L39.5832 24.6532
" />
<path d="M63.9882 25.2982
L63.1382 24.4482
" />
<path d="M39.5832 24.6532
L39.5832 23.6133
" />
<path d="M38.1882 26.5482
L38.7882 27.1482
" />
<path d="M63.1382 24.4482
L62.8882 24.4482
" />
<path d="M21.5222 32.4823
L21.5222 32.8998
" />
<path d="M39.3101 27.6701
L39.3681 27.7281
" />
<path d="M38.1882 26.2982
L38.1882 26.5482
" />
<path d="M20.7022 32.4823
L20.7022 32.8998
" />
<path d="M36.6943 32.8882
L39.6283 29.9543
" />
<path d="M39.6283 29.9543
L39.6283 27.9882
" />
<path d="M21.1122 32.4823
L21.1122 32.3182
" />
<path d="M64.5072 27.8422
L63.9882 27.3232
" />
<path d="M55.9131 25.8432
L61.2432 25.8432
" />
<path d="M52.6081 22.5382
L55.9131 25.8432
" />
<path d="M22.1782 32.3182
L22.5682 32.3182
" />
<path d="M40.6583 22.5382
L52.6081 22.5382
" />
<path d="M61.2432 25.8432
L62.6382 24.4482
" />
<path d="M39.5832 23.6133
L40.6583 22.5382
" />
<path d="M38.7301 27.6702
L38.7881 27.7282
" />
<path d="M22.0962 32.3182
L22.1782 32.3182
" />
<path d="M21.2762 31.5227
L21.3582 31.5227
" />
<path d="M21.5222 32.3182
L21.5222 32.4823
" />
<path d="M39.6283 27.9882
L39.6082 27.9682
" />
<path d="M38.7882 27.3802
L38.7301 27.4383
" />
<path d="M67.2882 26.7782
L66.2242 27.8422
" />
<path d="M21.6862 33.0638
L21.7682 33.0638
" />
<path d="M21.1122 32.8998
L21.1122 32.4823
" />
<path d="M25.3782 32.8882
L36.6943 32.8882
" />
<path d="M66.2242 27.8422
L64.5072 27.8422
" />
<path d="M23.9383 31.4482
L25.3782 32.8882
" />
<path d="M39.3681 27.7281
L39.6082 27.9682
" />
<path d="M20.7022 32.8998 A0.1640 0.1640 0.0 0 0 20.8662 33.0639" />
<path d="M38.7883 27.3802 A0.1640 0.1640 0.0 0 0 38.7882 27.1483" />
<path d="M38.7301 27.4383 A0.1640 0.1640 0.0 0 0 38.7301 27.6702" />
<path d="M39.3101 27.6701 A0.1640 0.1640 0.0 0 0 39.0782 27.6701" />
<path d="M21.2762 31.5226 A0.1640 0.1640 0.0 0 0 21.1122 31.6867" />
<path d="M21.7682 33.0638 A0.1640 0.1640 0.0 0 0 21.9322 32.8998" />
<path d="M22.0962 32.3182 A0.1640 0.1640 0.0 0 0 21.9322 32.4823" />
<path d="M20.9482 33.0638 A0.1640 0.1640 0.0 0 0 21.1122 32.8998" />
<path d="M21.5222 32.8998 A0.1640 0.1640 0.0 0 0 21.6862 33.0639" />
<path d="M38.7881 27.7282 A0.1640 0.1640 0.0 0 0 39.0201 27.7282" />
<path d="M20.7022 32.4823 A0.1640 0.1640 0.0 0 0 20.5382 32.3182" />
<path d="M21.5222 31.6867 A0.1640 0.1640 0.0 0 0 21.3582 31.5227" />
</g>
<g style="fill:none; 
stroke:#C83434; stroke-width:1.0000; stroke-opacity:1; 
stroke-linecap:round; stroke-linejoin:round;">
<path d="M65.6282 22.3483
L63.9382 22.3483
" />
<path d="M67.2882 24.0083
L65.6282 22.3483
" />
<path d="M20.9482 36.7482
L19.2882 35.0882
" />
<path d="M22.6382 36.7482
L20.9482 36.7482
" />
</g>
<g style="fill:none; 
stroke:#D0D2CD; stroke-width:0.0500; stroke-opacity:1; 
stroke-linecap:round; stroke-linejoin:round;">
<path d="M60.4883 45.5482
L78.2882 45.5482
" />
<path d="M59.2882 34.6482
L59.2882 45.5482
" />
<path d="M27.2882 9.5482
L59.2882 9.5482
" />
<path d="M60.4883 27.6482
L60.4883 31.4482
" />
<path d="M60.4883 34.6482
L60.4883 45.5482
" />
<path d="M60.4883 18.2482 A0.6000 0.6000 0.0 0 0 59.2882 18.2482" />
<path d="M26.0882 45.5482
L8.2884 45.5482
" />
<path d="M59.2882 27.6482
L59.2882 31.4482
" />
<path d="M60.4883 13.5482
L60.4883 13.9482
" />
<path d="M27.2883 18.2482 A0.6000 0.6000 0.0 0 0 26.0882 18.2482" />
<path d="M26.0882 24.4482 A0.6000 0.6000 0.0 0 0 27.2883 24.4482" />
<path d="M26.0882 13.5482
L26.0882 13.9482
" />
<path d="M60.4883 34.6482 A0.6000 0.6000 0.0 0 0 59.2882 34.6482" />
<path d="M59.2882 24.4482 A0.6000 0.6000 0.0 0 0 60.4883 24.4482" />
<path d="M27.2882 18.2482
L27.2882 24.4482
" />
<path d="M26.0882 31.4482 A0.6000 0.6000 0.0 0 0 27.2883 31.4482" />
<path d="M8.2882 13.5482
L26.0882 13.5482
" />
<path d="M59.2882 13.9482 A0.6000 0.6000 0.0 0 0 60.4883 13.9482" />
<path d="M78.2882 13.5482
L78.2882 45.5482
" />
<path d="M26.0882 34.6482
L26.0882 45.5482
" />
<path d="M59.2882 45.5482
L27.2882 45.5482
" />
<path d="M26.0882 27.6482
L26.0882 31.4482
" />
<path d="M26.0882 13.9482 A0.6000 0.6000 0.0 0 0 27.2883 13.9482" />
<path d="M27.2883 27.6482 A0.6000 0.6000 0.0 0 0 26.0882 27.6482" />
<path d="M60.4883 18.2482
L60.4883 24.4482
" />
<path d="M27.2882 34.6482
L27.2882 45.5482
" />
<path d="M27.2883 34.6482 A0.6000 0.6000 0.0 0 0 26.0882 34.6482" />
<path d="M27.2882 27.6482
L27.2882 31.4482
" />
<path d="M26.0882 18.2482
L26.0882 24.4482
" />
<path d="M59.2882 31.4482 A0.6000 0.6000 0.0 0 0 60.4883 31.4482" />
<path d="M59.2882 18.2482
L59.2882 24.4482
" />
<path d="M27.2882 13.9482
L27.2882 9.5482
" />
<path d="M8.2882 45.5482
L8.2882 13.5482
" />
<path d="M60.4883 27.6482 A0.6000 0.6000 0.0 0 0 59.2882 27.6482" />
<path d="M59.2882 9.5482
L59.2882 13.9482
" />
<path d="M60.4883 13.5482
L78.2882 13.5482
" />
</g>
<g style="fill:#FFFFFF; fill-opacity:1.0000; stroke:none;">
<circle cx="40.7882" cy="24.0482" r="0.1500" /> 
</g>
<g style="fill:#FFFFFF; fill-opacity:1.0000; stroke:none;">
<circle cx="43.2882" cy="24.0482" r="0.1500" /> 
</g>
<g style="fill:#FFFFFF; fill-opacity:1.0000; stroke:none;">
<circle cx="45.7882" cy="24.0482" r="0.1500" /> 
</g>
<g style="fill:#FFFFFF; fill-opacity:1.0000; stroke:none;">
<circle cx="61.8882" cy="22.3483" r="0.1500" /> 
</g>
<g style="fill:#FFFFFF; fill-opacity:1.0000; stroke:none;">
<circle cx="24.6883" cy="36.7482" r="0.1500" /> 
</g>
<g style="fill:#FFFFFF; fill-opacity:1.0000; stroke:none;">
<circle cx="41.3882" cy="26.2982" r="0.1500" /> 
</g>
<g style="fill:#FFFFFF; fill-opacity:1.0000; stroke:none;">
<circle cx="39.1172" cy="28.7482" r="0.1500" /> 
</g>
<g style="fill:#FFFFFF; fill-opacity:1.0000; stroke:none;">
<circle cx="45.1882" cy="26.2982" r="0.1500" /> 
</g>
<g style="fill:#FFFFFF; fill-opacity:1.0000; stroke:none;">
<circle cx="40.4482" cy="28.7482" r="0.1500" /> 
</g>
<g style="fill:#FFFFFF; fill-opacity:1.0000; stroke:none;">
<circle cx="39.1172" cy="29.4482" r="0.1500" /> 
</g>
<g style="fill:#FFFFFF; fill-opacity:1.0000; stroke:none;">
<circle cx="40.4482" cy="29.4482" r="0.1500" /> 
</g>
<g style="fill:#FFFFFF; fill-opacity:1.0000; stroke:none;">
<circle cx="48.3882" cy="26.2982" r="0.1500" /> 
</g>
<g style="fill:#FFFFFF; fill-opacity:1.0000; stroke:none;">
<circle cx="38.1882" cy="26.2982" r="0.1500" /> 
</g>
<g style="fill:#FFFFFF; fill-opacity:1.0000; stroke:none;">
<circle cx="17.8682" cy="17.0482" r="1.6000" /> 
</g>
<g style="fill:#FFFFFF; fill-opacity:1.0000; stroke:none;">
<circle cx="17.8682" cy="42.0482" r="1.6000" /> 
</g>
<g style="fill:#FFFFFF; fill-opacity:1.0000; stroke:none;">
<circle cx="19.2882" cy="24.0083" r="0.5000" /> 
</g>
<g style="fill:#FFFFFF; fill-opacity:1.0000; stroke:none;">
<circle cx="19.2882" cy="26.7782" r="0.5000" /> 
</g>
<g style="fill:#FFFFFF; fill-opacity:1.0000; stroke:none;">
<circle cx="19.2882" cy="29.5482" r="0.5000" /> 
</g>
<g style="fill:#FFFFFF; fill-opacity:1.0000; stroke:none;">
<circle cx="19.2882" cy="32.3182" r="0.5000" /> 
</g>
<g style="fill:#FFFFFF; fill-opacity:1.0000; stroke:none;">
<circle cx="19.2882" cy="35.0882" r="0.5000" /> 
</g>
<g style="fill:#FFFFFF; fill-opacity:1.0000; stroke:none;">
<circle cx="16.4482" cy="25.3932" r="0.5000" /> 
</g>
<g style="fill:#FFFFFF; fill-opacity:1.0000; stroke:none;">
<circle cx="16.4482" cy="28.1632" r="0.5000" /> 
</g>
<g style="fill:#FFFFFF; fill-opacity:1.0000; stroke:none;">
<circle cx="16.4482" cy="30.9332" r="0.5000" /> 
</g>
<g style="fill:#FFFFFF; fill-opacity:1.0000; stroke:none;">
<circle cx="16.4482" cy="33.7032" r="0.5000" /> 
</g>
<g style="fill:#FFFFFF; fill-opacity:1.0000; stroke:none;">
<circle cx="68.7082" cy="42.0482" r="1.6000" /> 
</g>
<g style="fill:#FFFFFF; fill-opacity:1.0000; stroke:none;">
<circle cx="68.7082" cy="17.0482" r="1.6000" /> 
</g>
<g style="fill:#FFFFFF; fill-opacity:1.0000; stroke:none;">
<circle cx="67.2882" cy="35.0882" r="0.5000" /> 
</g>
<g style="fill:#FFFFFF; fill-opacity:1.0000; stroke:none;">
<circle cx="67.2882" cy="32.3182" r="0.5000" /> 
</g>
<g style="fill:#FFFFFF; fill-opacity:1.0000; stroke:none;">
<circle cx="67.2882" cy="29.5482" r="0.5000" /> 
</g>
<g style="fill:#FFFFFF; fill-opacity:1.0000; stroke:none;">
<circle cx="67.2882" cy="26.7782" r="0.5000" /> 
</g>
<g style="fill:#FFFFFF; fill-opacity:1.0000; stroke:none;">
<circle cx="67.2882" cy="24.0083" r="0.5000" /> 
</g>
<g style="fill:#FFFFFF; fill-opacity:1.0000; stroke:none;">
<circle cx="70.1282" cy="33.7032" r="0.5000" /> 
</g>
<g style="fill:#FFFFFF; fill-opacity:1.0000; stroke:none;">
<circle cx="70.1282" cy="30.9332" r="0.5000" /> 
</g>
<g style="fill:#FFFFFF; fill-opacity:1.0000; stroke:none;">
<circle cx="70.1282" cy="28.1632" r="0.5000" /> 
</g>
<g style="fill:#FFFFFF; fill-opacity:1.0000; stroke:none;">
<circle cx="70.1282" cy="25.3932" r="0.5000" /> 
</g>
<g style="fill:#FFFFFF; fill-opacity:1.0000; stroke:none;">
<circle cx="55.7882" cy="19.4786" r="1.6000" /> 
</g>
<g style="fill:#FFFFFF; fill-opacity:1.0000; stroke:none;">
<circle cx="30.7882" cy="19.4786" r="1.6000" /> 
</g>
<g style="fill:#FFFFFF; fill-opacity:1.0000; stroke:none;">
<circle cx="48.8282" cy="20.8986" r="0.5000" /> 
</g>
<g style="fill:#FFFFFF; fill-opacity:1.0000; stroke:none;">
<circle cx="46.0583" cy="20.8986" r="0.5000" /> 
</g>
<g style="fill:#FFFFFF; fill-opacity:1.0000; stroke:none;">
<circle cx="43.2882" cy="20.8986" r="0.5000" /> 
</g>
<g style="fill:#FFFFFF; fill-opacity:1.0000; stroke:none;">
<circle cx="40.5182" cy="20.8986" r="0.5000" /> 
</g>
<g style="fill:#FFFFFF; fill-opacity:1.0000; stroke:none;">
<circle cx="37.7482" cy="20.8986" r="0.5000" /> 
</g>
<g style="fill:#FFFFFF; fill-opacity:1.0000; stroke:none;">
<circle cx="47.4432" cy="18.0586" r="0.5000" /> 
</g>
<g style="fill:#FFFFFF; fill-opacity:1.0000; stroke:none;">
<circle cx="44.6732" cy="18.0586" r="0.5000" /> 
</g>
<g style="fill:#FFFFFF; fill-opacity:1.0000; stroke:none;">
<circle cx="41.9032" cy="18.0586" r="0.5000" /> 
</g>
<g style="fill:#FFFFFF; fill-opacity:1.0000; stroke:none;">
<circle cx="39.1332" cy="18.0586" r="0.5000" /> 
</g> 
</svg>
